<?xml version="1.0" encoding="UTF-8" standalone="no"?>
<svg
   xmlns:dc="http://purl.org/dc/elements/1.1/"
   xmlns:cc="http://creativecommons.org/ns#"
   xmlns:rdf="http://www.w3.org/1999/02/22-rdf-syntax-ns#"
   xmlns:svg="http://www.w3.org/2000/svg"
   xmlns="http://www.w3.org/2000/svg"
   xmlns:sodipodi="http://sodipodi.sourceforge.net/DTD/sodipodi-0.dtd"
   xmlns:inkscape="http://www.inkscape.org/namespaces/inkscape"
   version="1.1"
   id="Layer_1"
   x="0px"
   y="0px"
   viewBox="-51 -54 40 40"
   enable-background="new -51 -54 2022 1006"
   xml:space="preserve"
   sodipodi:docname="all_goods&amp;services.svg"
   width="40"
   height="40"
   inkscape:version="0.92.2 (5c3e80d, 2017-08-06)"><metadata
     id="metadata4058"><rdf:RDF><cc:Work
         rdf:about=""><dc:format>image/svg+xml</dc:format><dc:type
           rdf:resource="http://purl.org/dc/dcmitype/StillImage" /><dc:title /></cc:Work></rdf:RDF></metadata><defs
     id="defs4056" /><sodipodi:namedview
     pagecolor="#ffffff"
     bordercolor="#666666"
     borderopacity="1"
     objecttolerance="10"
     gridtolerance="10"
     guidetolerance="10"
     inkscape:pageopacity="0"
     inkscape:pageshadow="2"
     inkscape:window-width="1366"
     inkscape:window-height="716"
     id="namedview4054"
     showgrid="false"
     inkscape:snap-grids="false"
     inkscape:snap-page="true"
     inkscape:zoom="2.8284271"
     inkscape:cx="33.290423"
     inkscape:cy="-2.7366931"
     inkscape:window-x="-8"
     inkscape:window-y="-8"
     inkscape:window-maximized="1"
     inkscape:current-layer="Layer_1" /><g
     inkscape:groupmode="layer"
     id="layer1"
     inkscape:label="Layer 1"
     style="display:none"
     transform="translate(0,-966)" /><path
     style="fill-rule:evenodd;stroke-width:8"
     d=""
     id="path4602"
     inkscape:connector-curvature="0" /><path
     style="fill-rule:evenodd;stroke-width:8"
     d=""
     id="path4604"
     inkscape:connector-curvature="0" /><circle
     style="fill:#61c0d9;fill-opacity:1;fill-rule:evenodd;stroke-width:0.90361607"
     id="path4622"
     cx="-30.874996"
     cy="-34.021446"
     r="20" /><g
     id="grape_parts"
     transform="matrix(0.08042439,0,0,0.07054078,-40.975272,-51.250161)"
     style="fill:none;stroke:#ffffff;stroke-opacity:1;stroke-width:10.28934397;stroke-miterlimit:4;stroke-dasharray:none;stroke-linejoin:round"><path
       d="m 122,224.184 c 18.823,0 34.09,15.268 34.09,34.091 0,18.823 -15.267,34.09 -34.09,34.09 -18.826,0 -34.09,-15.267 -34.09,-34.09 0,-18.823 15.264,-34.091 34.09,-34.091"
       id="path4149"
       inkscape:connector-curvature="0"
       style="fill:none;stroke:#ffffff;stroke-opacity:1;stroke-width:10.28934397;stroke-miterlimit:4;stroke-dasharray:none;stroke-linejoin:round" /><path
       d="m 122,306 c -26.59,0 -47.727,-21.133 -47.727,-47.726 0,-26.593 21.137,-47.726 47.727,-47.726 26.593,0 47.727,21.134 47.727,47.727 C 169.727,284.868 148.593,306 122,306 m 0,-81.816 c -19.089,0 -34.09,15.002 -34.09,34.091 0,19.089 15.001,34.09 34.09,34.09 19.089,0 34.09,-15.001 34.09,-34.09 0,-19.089 -15.001,-34.091 -34.09,-34.091"
       id="path4151"
       inkscape:connector-curvature="0"
       style="fill:none;stroke:#ffffff;stroke-opacity:1;stroke-width:10.28934397;stroke-miterlimit:4;stroke-dasharray:none;stroke-linejoin:round" /><path
       d="m 142.454,231.002 c 4.088,5.453 6.818,12.957 6.818,20.454 0,19.089 -15.001,34.091 -34.091,34.091 -7.5,0 -15.001,-2.73 -20.454,-6.818 6.136,8.183 16.363,13.636 27.272,13.636 19.089,0 34.09,-15.001 34.09,-34.09 0.001,-10.907 -5.452,-21.134 -13.635,-27.273"
       id="path4153"
       inkscape:connector-curvature="0"
       style="fill:none;stroke:#ffffff;stroke-opacity:1;stroke-width:10.28934397;stroke-miterlimit:4;stroke-dasharray:none;stroke-linejoin:round" /><path
       d="m 101.546,251.456 c 3.762,0 6.818,3.056 6.818,6.818 0,3.762 -3.056,6.817 -6.818,6.817 -3.762,0 -6.818,-3.056 -6.818,-6.817 0,-3.762 3.056,-6.818 6.818,-6.818"
       id="path4155"
       inkscape:connector-curvature="0"
       style="fill:none;stroke:#ffffff;stroke-opacity:1;stroke-width:10.28934397;stroke-miterlimit:4;stroke-dasharray:none;stroke-linejoin:round" /><path
       d="m 94.728,251.456 c 13.636,0 25.229,-5.453 34.091,-14.315 6.817,6.818 16.365,12.271 26.593,13.637 -3.409,-15.002 -17.045,-26.594 -33.411,-26.594 -16.363,0 -29.999,11.592 -33.408,26.594 2.043,0.678 4.091,0.678 6.135,0.678"
       id="path4157"
       inkscape:connector-curvature="0"
       style="fill:none;stroke:#ffffff;stroke-opacity:1;stroke-width:10.28934397;stroke-miterlimit:4;stroke-dasharray:none;stroke-linejoin:round" /><path
       d="m 156.09,162.821 c 18.823,0 34.091,15.268 34.091,34.091 0,18.822 -15.268,34.09 -34.091,34.09 -18.822,0 -34.09,-15.268 -34.09,-34.09 0,-18.823 15.268,-34.091 34.09,-34.091"
       id="path4159"
       inkscape:connector-curvature="0"
       style="fill:none;stroke:#ffffff;stroke-opacity:1;stroke-width:10.28934397;stroke-miterlimit:4;stroke-dasharray:none;stroke-linejoin:round" /><path
       d="m 156.09,244.639 c -26.593,0 -47.726,-21.134 -47.726,-47.727 0,-26.594 21.133,-47.727 47.726,-47.727 26.594,0 47.727,21.133 47.727,47.727 -0.001,26.593 -21.133,47.727 -47.727,47.727 m 0,-81.818 c -19.089,0 -34.09,15.001 -34.09,34.091 0,19.089 15.001,34.09 34.09,34.09 19.09,0 34.091,-15.001 34.091,-34.09 0,-19.09 -15.001,-34.091 -34.091,-34.091"
       id="path4161"
       inkscape:connector-curvature="0"
       style="fill:none;stroke:#ffffff;stroke-opacity:1;stroke-width:10.28934397;stroke-miterlimit:4;stroke-dasharray:none;stroke-linejoin:round" /><path
       d="m 176.544,169.64 c 4.089,5.453 6.818,12.957 6.818,20.454 0,19.089 -15.001,34.09 -34.09,34.09 -7.497,0 -15.001,-2.729 -20.454,-6.818 6.139,8.184 16.365,13.637 27.271,13.637 19.09,0 34.091,-15.001 34.091,-34.09 0.001,-10.907 -5.452,-21.135 -13.636,-27.273"
       id="path4163"
       inkscape:connector-curvature="0"
       style="fill:none;stroke:#ffffff;stroke-opacity:1;stroke-width:10.28934397;stroke-miterlimit:4;stroke-dasharray:none;stroke-linejoin:round" /><path
       d="m 189.495,189.414 c -3.409,-15.001 -17.046,-26.593 -33.405,-26.593 -19.089,0 -34.09,15.001 -34.09,34.091 0,10.906 4.773,19.774 12.271,25.906 4.773,-7.496 8.183,-16.358 8.183,-25.906 0,-2.73 0,-6.14 -0.686,-8.862 8.183,-2.044 15.687,-6.818 21.14,-12.271 6.819,6.818 16.36,12.271 26.587,13.635"
       id="path4165"
       inkscape:connector-curvature="0"
       style="fill:none;stroke:#ffffff;stroke-opacity:1;stroke-width:10.28934397;stroke-miterlimit:4;stroke-dasharray:none;stroke-linejoin:round" /><path
       d="m 87.91,162.821 c 18.826,0 34.09,15.268 34.09,34.091 0,18.822 -15.264,34.09 -34.09,34.09 -18.826,0 -34.09,-15.268 -34.09,-34.09 -10e-4,-18.823 15.263,-34.091 34.09,-34.091"
       id="path4167"
       inkscape:connector-curvature="0"
       style="fill:none;stroke:#ffffff;stroke-opacity:1;stroke-width:10.28934397;stroke-miterlimit:4;stroke-dasharray:none;stroke-linejoin:round" /><path
       d="m 87.91,244.639 c -26.59,0 -47.727,-21.134 -47.727,-47.727 0,-26.594 21.137,-47.727 47.727,-47.727 26.59,0 47.726,21.133 47.726,47.727 0,26.593 -21.136,47.727 -47.726,47.727 m 0,-81.818 c -19.089,0 -34.09,15.001 -34.09,34.091 0,19.089 15.001,34.09 34.09,34.09 19.089,0 34.09,-15.001 34.09,-34.09 0,-19.09 -15.001,-34.091 -34.09,-34.091"
       id="path4169"
       inkscape:connector-curvature="0"
       style="fill:none;stroke:#ffffff;stroke-opacity:1;stroke-width:10.28934397;stroke-miterlimit:4;stroke-dasharray:none;stroke-linejoin:round" /><path
       d="m 108.364,169.64 c 4.091,5.453 6.818,12.957 6.818,20.454 0,19.089 -15.001,34.09 -34.09,34.09 -7.501,0 -15.001,-2.729 -20.454,-6.818 6.135,8.184 16.362,13.637 27.272,13.637 19.089,0 34.09,-15.001 34.09,-34.09 0,-10.907 -5.453,-21.135 -13.636,-27.273"
       id="path4171"
       inkscape:connector-curvature="0"
       style="fill:none;stroke:#ffffff;stroke-opacity:1;stroke-width:10.28934397;stroke-miterlimit:4;stroke-dasharray:none;stroke-linejoin:round" /><path
       d="m 60.638,190.094 c 13.636,0 25.228,-5.453 34.09,-14.315 6.818,6.818 16.363,12.271 26.59,13.636 -3.409,-15.001 -17.045,-26.593 -33.408,-26.593 -16.363,0 -29.999,11.592 -33.408,26.593 2.044,0.679 4.091,0.679 6.136,0.679"
       id="path4173"
       inkscape:connector-curvature="0"
       style="fill:none;stroke:#ffffff;stroke-opacity:1;stroke-width:10.28934397;stroke-miterlimit:4;stroke-dasharray:none;stroke-linejoin:round" /><path
       d="m 67.456,190.094 c 3.762,0 6.818,3.056 6.818,6.818 0,3.762 -3.056,6.817 -6.818,6.817 -3.762,0 -6.818,-3.056 -6.818,-6.817 0,-3.763 3.055,-6.818 6.818,-6.818"
       id="path4175"
       inkscape:connector-curvature="0"
       style="fill:none;stroke:#ffffff;stroke-opacity:1;stroke-width:10.28934397;stroke-miterlimit:4;stroke-dasharray:none;stroke-linejoin:round" /><path
       d="m 53.819,101.458 c 18.826,0 34.09,15.267 34.09,34.09 0,18.827 -15.264,34.091 -34.09,34.091 -18.826,0 -34.09,-15.265 -34.09,-34.091 0,-18.822 15.264,-34.09 34.09,-34.09"
       id="path4177"
       inkscape:connector-curvature="0"
       style="fill:none;stroke:#ffffff;stroke-opacity:1;stroke-width:10.28934397;stroke-miterlimit:4;stroke-dasharray:none;stroke-linejoin:round" /><path
       d="m 53.819,183.275 c -26.59,0 -47.727,-21.133 -47.727,-47.727 0,-26.589 21.137,-47.726 47.727,-47.726 26.59,0 47.727,21.137 47.727,47.726 0,26.595 -21.137,47.727 -47.727,47.727 m 0,-81.817 c -19.089,0 -34.09,15.001 -34.09,34.09 0,19.089 15.001,34.091 34.09,34.091 19.089,0 34.09,-15.002 34.09,-34.091 10e-4,-19.089 -15,-34.09 -34.09,-34.09"
       id="path4179"
       inkscape:connector-curvature="0"
       style="fill:none;stroke:#ffffff;stroke-opacity:1;stroke-width:10.28934397;stroke-miterlimit:4;stroke-dasharray:none;stroke-linejoin:round" /><path
       d="m 74.273,108.276 c 4.092,5.453 6.818,12.954 6.818,20.454 0,19.089 -15.001,34.091 -34.09,34.091 -7.5,0 -15.001,-2.729 -20.455,-6.818 6.136,8.184 16.363,13.637 27.272,13.637 19.089,0 34.09,-15.002 34.09,-34.091 0.002,-10.91 -5.451,-21.137 -13.635,-27.273"
       id="path4181"
       inkscape:connector-curvature="0"
       style="fill:none;stroke:#ffffff;stroke-opacity:1;stroke-width:10.28934397;stroke-miterlimit:4;stroke-dasharray:none;stroke-linejoin:round" /><path
       d="m 33.365,142.367 c -4.092,0 -6.818,-2.727 -6.818,-6.818 0,-15.001 12.271,-27.272 27.272,-27.272 4.092,0 6.818,2.727 6.818,6.818 0,4.092 -2.727,6.818 -6.818,6.818 -7.5,0 -13.636,6.136 -13.636,13.636 0,4.091 -2.726,6.818 -6.818,6.818"
       id="path4183"
       inkscape:connector-curvature="0"
       style="fill:none;stroke:#ffffff;stroke-opacity:1;stroke-width:10.28934397;stroke-miterlimit:4;stroke-dasharray:none;stroke-linejoin:round" /><path
       d="m 190.181,101.458 c 18.823,0 34.09,15.267 34.09,34.09 0,18.827 -15.267,34.091 -34.09,34.091 -18.823,0 -34.091,-15.265 -34.091,-34.091 0,-18.822 15.267,-34.09 34.091,-34.09"
       id="path4185"
       inkscape:connector-curvature="0"
       style="fill:none;stroke:#ffffff;stroke-opacity:1;stroke-width:10.28934397;stroke-miterlimit:4;stroke-dasharray:none;stroke-linejoin:round" /><path
       d="m 190.181,183.275 c -26.593,0 -47.727,-21.133 -47.727,-47.727 0,-26.589 21.134,-47.726 47.727,-47.726 26.593,0 47.727,21.137 47.727,47.726 -10e-4,26.595 -21.135,47.727 -47.727,47.727 m 0,-81.817 c -19.09,0 -34.091,15.001 -34.091,34.09 0,19.089 15.001,34.091 34.091,34.091 19.089,0 34.09,-15.002 34.09,-34.091 0,-19.089 -15.001,-34.09 -34.09,-34.09"
       id="path4187"
       inkscape:connector-curvature="0"
       style="fill:none;stroke:#ffffff;stroke-opacity:1;stroke-width:10.28934397;stroke-miterlimit:4;stroke-dasharray:none;stroke-linejoin:round" /><path
       d="m 210.635,108.276 c 4.088,5.453 6.818,12.954 6.818,20.454 0,19.089 -15.001,34.091 -34.091,34.091 -7.497,0 -15.001,-2.729 -20.454,-6.818 6.139,8.184 16.366,13.637 27.272,13.637 19.089,0 34.09,-15.002 34.09,-34.091 10e-4,-10.91 -5.453,-21.137 -13.635,-27.273"
       id="path4189"
       inkscape:connector-curvature="0"
       style="fill:none;stroke:#ffffff;stroke-opacity:1;stroke-width:10.28934397;stroke-miterlimit:4;stroke-dasharray:none;stroke-linejoin:round" /><path
       d="m 156.09,135.548 c 0,11.592 6.14,22.499 15.001,28.638 3.409,-6.818 5.453,-13.637 5.453,-21.82 0,-11.592 -4.088,-21.819 -10.906,-30.681 -6.139,6.136 -9.548,15.002 -9.548,23.863"
       id="path4191"
       inkscape:connector-curvature="0"
       style="fill:none;stroke:#ffffff;stroke-opacity:1;stroke-width:10.28934397;stroke-miterlimit:4;stroke-dasharray:none;stroke-linejoin:round" /><path
       d="m 183.362,108.276 c 3.762,0 6.818,3.056 6.818,6.818 0,3.766 -3.057,6.818 -6.818,6.818 -3.761,0 -6.818,-3.053 -6.818,-6.818 0,-3.761 3.057,-6.818 6.818,-6.818"
       id="path4193"
       inkscape:connector-curvature="0"
       style="fill:none;stroke:#ffffff;stroke-opacity:1;stroke-width:10.28934397;stroke-miterlimit:4;stroke-dasharray:none;stroke-linejoin:round" /><path
       d="m 122,101.458 c 18.823,0 34.09,15.267 34.09,34.09 0,18.827 -15.267,34.091 -34.09,34.091 -18.826,0 -34.09,-15.265 -34.09,-34.091 0,-18.822 15.264,-34.09 34.09,-34.09"
       id="path4195"
       inkscape:connector-curvature="0"
       style="fill:none;stroke:#ffffff;stroke-opacity:1;stroke-width:10.28934397;stroke-miterlimit:4;stroke-dasharray:none;stroke-linejoin:round" /><path
       d="m 122,183.275 c -26.59,0 -47.727,-21.133 -47.727,-47.727 0,-26.589 21.137,-47.726 47.727,-47.726 26.593,0 47.727,21.137 47.727,47.726 0,26.595 -21.134,47.727 -47.727,47.727 m 0,-81.817 c -19.089,0 -34.09,15.001 -34.09,34.09 0,19.089 15.001,34.091 34.09,34.091 19.089,0 34.09,-15.002 34.09,-34.091 0,-19.089 -15.001,-34.09 -34.09,-34.09"
       id="path4197"
       inkscape:connector-curvature="0"
       style="fill:none;stroke:#ffffff;stroke-opacity:1;stroke-width:10.28934397;stroke-miterlimit:4;stroke-dasharray:none;stroke-linejoin:round" /><path
       d="m 142.454,108.276 c 4.088,5.453 6.818,12.954 6.818,20.454 0,19.089 -15.001,34.091 -34.091,34.091 -7.5,0 -15.001,-2.729 -20.454,-6.818 6.136,8.184 16.363,13.637 27.272,13.637 19.089,0 34.09,-15.002 34.09,-34.091 0.001,-10.91 -5.452,-21.137 -13.635,-27.273"
       id="path4199"
       inkscape:connector-curvature="0"
       style="fill:none;stroke:#ffffff;stroke-opacity:1;stroke-width:10.28934397;stroke-miterlimit:4;stroke-dasharray:none;stroke-linejoin:round" /><path
       d="m 101.546,142.367 c -4.092,0 -6.818,-2.727 -6.818,-6.818 0,-15.001 12.271,-27.272 27.272,-27.272 4.088,0 6.818,2.727 6.818,6.818 0,4.092 -2.73,6.818 -6.818,6.818 -7.5,0 -13.636,6.136 -13.636,13.636 0,4.091 -2.727,6.818 -6.818,6.818"
       id="path4201"
       inkscape:connector-curvature="0"
       style="fill:none;stroke:#ffffff;stroke-opacity:1;stroke-width:10.28934397;stroke-miterlimit:4;stroke-dasharray:none;stroke-linejoin:round" /><path
       d="m 122,60.55 c 0,-10.91 -4.092,-21.137 -11.592,-29.316 -8.18,-7.501 -18.407,-11.592 -29.316,-11.592 0,10.91 4.091,21.137 11.592,29.316 7.497,8.183 18.406,11.592 29.316,11.592"
       id="path4203"
       inkscape:connector-curvature="0"
       style="fill:none;stroke:#ffffff;stroke-opacity:1;stroke-width:10.28934397;stroke-miterlimit:4;stroke-dasharray:none;stroke-linejoin:round" /><path
       d="m 176.544,33.278 c -16.365,0 -30.681,6.136 -41.587,16.362 C 132.906,39.413 128.139,29.186 119.956,21.686 107.682,9.415 90.636,3.961 74.273,6.688 71.546,7.371 68.82,9.415 68.82,12.141 c -2.729,16.363 3.409,34.09 14.998,45.683 9.544,9.544 22.501,14.998 35.455,15.68 -2.047,6.136 -3.409,13.636 -3.409,20.454 0,4.092 2.727,6.818 6.814,6.818 4.095,0 6.818,-2.727 6.818,-6.818 0,-26.589 21.14,-47.726 47.727,-47.726 4.095,0 6.818,-2.727 6.818,-6.818 0.001,-4.092 -3.408,-6.136 -7.497,-6.136 M 81.092,19.642 c 10.909,0 21.137,4.091 29.316,11.592 C 117.908,39.414 122,49.64 122,60.55 111.09,60.55 100.863,56.458 92.684,48.958 84.5,41.461 81.092,30.551 81.092,19.642"
       id="path4205"
       inkscape:connector-curvature="0"
       style="fill:none;stroke:#ffffff;stroke-opacity:1;stroke-width:10.28934397;stroke-miterlimit:4;stroke-dasharray:none;stroke-linejoin:round" /><path
       d="M 121.317,53.732 C 111.09,53.732 100.863,49.64 92.68,42.14 86.545,36.004 82.453,28.504 81.092,20.324 h -0.683 c 0,10.91 4.091,21.137 11.592,29.316 8.862,6.818 19.089,10.91 29.999,10.91 0,-2.044 0,-4.774 -0.683,-6.818"
       id="path4207"
       inkscape:connector-curvature="0"
       style="fill:none;stroke:#ffffff;stroke-opacity:1;stroke-width:10.28934397;stroke-miterlimit:4;stroke-dasharray:none;stroke-linejoin:round" /></g><path
     id="path4442"
     style="clip-rule:evenodd;fill:none;fill-rule:evenodd;stroke-width:0.48132217;stroke:#ffffff;stroke-opacity:1"
     d="m -43.338215,-37.3821 c -0.01183,0.0066 -0.0232,0.01375 -0.03504,0.01985 -0.265606,1.258669 -0.07369,2.792921 -0.301556,4.096412 h -0.01819 -0.01778 c -0.136891,-0.524149 -0.884136,-1.192453 -1.384884,-1.332531 -0.212396,-0.05908 -0.381572,0.02393 -0.568054,0.03975 -0.0432,-0.06213 -0.08415,-0.110539 -0.160566,-0.139065 v 0.04027 c -0.124162,0.3693 0.183737,0.969852 0.302448,1.192447 0.471635,0.888861 0.805935,1.851561 1.189349,2.843828 0.183283,0.590367 0.367043,1.180224 0.550787,1.770082 0.153278,0.292893 0.44117,0.451835 0.639011,0.695826 0.324745,0.430932 0.650353,0.861862 0.976008,1.292797 0.272432,0.324981 0.544433,0.649436 0.816866,0.97442 0.430253,0.627042 0.563961,1.313182 1.101096,1.849046 0.266061,0.185923 0.532565,0.371352 0.798183,0.556764 1.286211,1.156794 3.223713,2.197928 4.012808,3.857986 0.112339,0.284741 0.225162,0.569999 0.337501,0.855248 -0.01183,0.430423 -0.02413,0.86186 -0.0355,1.292284 0.06823,0.613798 0.110316,1.311144 -0.01929,1.849048 -0.04821,0.257445 1.889754,0.292429 4.187639,0.287112 0.0376,-0.581196 0.132596,-1.148103 0.181476,-1.658874 0.006,0.01324 0.01183,0.0265 0.01778,0.03974 0.133231,0.379796 0.0397,1.105732 0.03585,1.61837 1.502312,-0.005 3.131119,-0.02428 4.448435,-0.0086 -0.241344,-1.402232 -0.337145,-2.613741 0.256705,-3.816331 0.401606,-0.814491 1.146122,-1.399242 1.811056,-1.928994 0.9019,-0.718728 1.73331,-1.59081 2.644753,-2.306485 0.385231,-0.245518 0.769524,-0.490514 1.154296,-0.736034 0.446173,-0.423291 0.708158,-1.20874 1.065181,-1.729832 0.204672,-0.297985 0.491649,-0.517034 0.710858,-0.795662 0.295634,-0.384579 0.591285,-0.769151 0.887373,-1.153221 0.236955,-0.257745 0.473891,-0.516496 0.710397,-0.775261 0.319272,-0.795136 0.638999,-1.590785 0.958276,-2.386431 0.329742,-0.626534 0.659489,-1.197547 1.012887,-1.809309 0.199657,-0.345358 0.508937,-0.624998 0.550326,-1.153225 -0.15736,-0.142626 -0.188284,-0.01635 -0.408415,-0.0199 -0.529859,-0.0097 -0.918723,0.05401 -1.224354,0.337712 -0.104609,0.09678 -0.156456,0.246057 -0.302443,0.298013 0.243781,-0.638247 0.642625,-1.203652 0.940981,-1.769569 0.09506,-0.258761 0.189648,-0.517561 0.2838,-0.775816 -0.01731,-0.01323 -0.03498,-0.02653 -0.05276,-0.03975 -0.100972,0.0071 -0.201046,0.0133 -0.302017,0.02043 -0.568072,-0.150778 -0.99193,-0.167573 -1.349408,0.318374 -0.100971,0.138547 -0.201051,0.278086 -0.302017,0.417144 -1.174325,-0.78444 -2.166254,0.948984 -2.538749,1.84956 -0.222853,-0.05499 -0.537589,-0.20272 -0.798642,-0.159421 -0.983303,0.164525 -1.477253,1.410966 -1.917964,2.20763 -0.288358,0.521094 -0.468936,1.04369 -0.710438,1.650356 -0.219221,0.456912 -0.437958,0.914852 -0.656725,1.371762 -0.05369,0.205278 -0.106894,0.41107 -0.160105,0.616351 -0.302454,0.595461 -0.83232,1.108396 -1.224816,1.630506 -0.07141,0.03973 -0.14236,0.07948 -0.213309,0.119215 -0.183283,0.159436 -0.367039,0.31836 -0.550327,0.477287 -0.319279,0.152812 -0.638981,0.305603 -0.958714,0.457905 -1.121115,0.640797 -2.690222,1.618802 -3.249648,2.863208 -0.174644,0.389162 -0.220592,1.018273 -0.319732,1.45226 h -0.01732 c -0.02956,-0.423801 -0.05911,-0.848635 -0.08868,-1.272948 -0.07732,-0.308172 -0.271523,-0.582751 -0.408422,-0.8354 -0.743613,-1.37939 -1.811965,-2.275855 -3.124554,-3.002227 -0.384771,-0.145682 -0.769549,-0.291907 -1.153866,-0.437589 -0.33156,-0.272008 -0.663138,-0.543502 -0.994693,-0.815 -0.40114,-0.426347 -0.825026,-0.825164 -1.20753,-1.272905 -0.08278,-0.07946 -0.165539,-0.159435 -0.248309,-0.238899 -0.387506,-0.675431 -0.84641,-1.408455 -1.456309,-1.829709 -0.01183,-0.634684 -0.259252,-1.050819 -0.372045,-1.511293 0.0232,-0.298494 0.04687,-0.597001 0.07049,-0.894987 0.126901,-0.897012 -0.253341,-1.786888 -0.799576,-1.968733 0.08232,-0.736557 -0.02454,-1.318764 -0.496201,-1.590773 -0.112793,-0.026 -0.225114,-0.05298 -0.337453,-0.07896 -0.103695,-0.05402 -0.09462,-0.225664 -0.231067,-0.279149 -0.221495,0.911787 -0.412024,2.125128 -0.550298,3.141845 h -0.0355 c -0.148271,-1.752761 0.545751,-3.140808 -1.207093,-3.638979 -0.02367,-0.111557 -0.0764,-0.176242 -0.142349,-0.238897 z m 17.054389,22.032131 c 0.0017,0.01097 0.004,0.02218 0.0058,0.03318 0.07252,-0.01428 0.144691,-0.01953 0.221851,-0.01771 0.01597,-0.0039 0.03031,-0.0077 0.04512,-0.01159 -0.08936,-0.0015 -0.180182,-0.0028 -0.272794,-0.0039 z m -4.448436,0.0086 c -0.07844,2.62e-4 -0.157382,5.89e-4 -0.235066,7.52e-4 0,0.0038 0,0.0076 -5.81e-4,0.01133 h 0.235571 c 6.5e-5,-0.0041 8.2e-5,-0.0081 0,-0.01209 z m 12.677993,-18.123671 c -0.143269,0.305113 -0.284697,0.610221 -0.426603,0.91483 -0.186921,0.442648 -0.283321,1.093099 -0.58623,1.411968 h -0.01778 v -0.02036 c 0.231505,-0.663717 0.51394,-2.007438 1.030601,-2.306443 z m -1.829245,0.178797 h 0.05323 c -0.02367,0.05298 -0.0414,0.05807 -0.05323,0 z m -0.355216,0.79562 c -0.08004,0.35045 -1.004206,2.239722 -1.225245,2.346694 v -0.01985 c 0.199658,-0.659642 0.749973,-2.077251 1.225245,-2.326845 z"
     inkscape:connector-curvature="0" /><path
     style="fill:#61c0d9;fill-opacity:0;fill-rule:evenodd;stroke-width:0.125"
     d="m -28.583304,-13.811971 c -4.532922,-0.468957 -9.064947,-2.282148 -12.75,-5.101072 -1.033119,-0.790296 -2.933684,-2.639875 -3.870768,-3.766926 -5.518992,-6.637817 -7.18393,-15.840163 -4.353518,-24.0625 4.163545,-12.095083 17.003815,-19.05359 29.397553,-15.931368 12.92764,3.256723 20.943111,16.157278 18.188675,29.273885 -2.113639,10.065131 -10.329335,17.848545 -20.486942,19.408985 -1.572303,0.241541 -4.650827,0.331508 -6.125,0.178996 z m 8.894,-1.679356 c -0.237978,-0.237979 -0.380202,-1.55633 -0.301143,-2.791476 0.120077,-1.875984 0.747781,-2.862373 2.924052,-4.59492 0.636883,-0.507028 1.734361,-1.403845 2.438844,-1.992929 0.704481,-0.589084 1.621385,-1.273882 2.037561,-1.521776 1.053576,-0.627555 1.374934,-0.955413 2.001894,-2.042374 0.30047,-0.520929 0.64428,-1.028261 0.764021,-1.127405 0.11974,-0.09915 0.734851,-0.799012 1.366914,-1.555262 0.632062,-0.75625 1.263304,-1.476038 1.402757,-1.599528 0.139454,-0.12349 0.552065,-0.939115 0.916914,-1.8125 0.630115,-1.508384 1.326134,-2.80475 2.3898,-4.451102 0.680884,-1.053879 0.65114,-1.2007 -0.241864,-1.193884 -0.395312,0.003 -0.929687,0.08076 -1.1875,0.17277 -0.257812,0.09201 -0.46875,0.14344 -0.46875,0.114296 0,-0.02914 0.252874,-0.484972 0.561943,-1.012954 0.528776,-0.903308 0.89234,-1.744603 0.794265,-1.837951 -0.04901,-0.04665 -1.271508,-0.106101 -1.689416,-0.08216 -0.14889,0.0085 -0.475668,0.231803 -0.726173,0.496162 -0.44101,0.465398 -0.471059,0.47649 -0.946825,0.3495 -0.905652,-0.241731 -1.879776,0.478178 -2.79366,2.064603 -0.333985,0.57977 -0.337364,0.581716 -0.791936,0.456202 -1.191814,-0.329075 -2.172053,0.586224 -3.458791,3.229649 -1.553105,3.190636 -1.804039,3.728971 -2.001738,4.294394 -0.22306,0.637952 -1.381301,2.036528 -2.207221,2.66522 -0.304121,0.231496 -1.0764,0.680542 -1.716175,0.99788 -2.150918,1.066887 -3.970128,2.460897 -4.58847,3.51602 -0.167879,0.286463 -0.386175,0.855538 -0.485104,1.264611 l -0.17987,0.743769 -0.01041,-0.689352 c -0.01104,-0.730686 -0.18637,-1.148595 -0.994308,-2.369966 -1.002114,-1.514911 -3.001276,-3.063706 -4.779531,-3.702809 -0.570276,-0.204956 -1.211226,-0.560826 -1.674075,-0.929486 -1.003803,-0.799529 -2.744865,-2.626495 -3.430634,-3.599902 -0.305599,-0.433778 -0.713411,-0.901035 -0.90625,-1.038348 -0.192841,-0.137314 -0.350619,-0.349525 -0.350619,-0.47158 0,-0.122056 -0.116532,-0.554164 -0.258961,-0.960239 -0.214036,-0.610231 -0.245062,-0.90651 -0.178845,-1.707807 0.100328,-1.214064 -0.146027,-2.180969 -0.667477,-2.619739 -0.287143,-0.241615 -0.368358,-0.431766 -0.426972,-0.99968 -0.08853,-0.8578 -0.355969,-1.292315 -0.90741,-1.474307 -0.230553,-0.07609 -0.443915,-0.205494 -0.474136,-0.287565 -0.135456,-0.367849 -0.345659,0.210737 -0.627325,1.72672 l -0.301746,1.62406 -0.04731,-1.460057 c -0.05449,-1.681565 -0.186752,-1.973175 -1.108612,-2.444338 -0.300663,-0.15367 -0.59034,-0.350074 -0.643727,-0.436456 -0.256294,-0.414691 -0.385891,0.238284 -0.50529,2.545905 -0.06887,1.330971 -0.144688,2.439919 -0.168492,2.464325 -0.02381,0.02441 -0.219433,-0.156248 -0.434729,-0.401456 -0.565427,-0.643987 -1.212326,-1.000714 -1.964949,-1.083555 l -0.659017,-0.07254 v 0.415335 c 0,0.241251 0.229598,0.87272 0.547784,1.506586 0.678151,1.350959 1.559587,3.497654 2.013489,4.903753 0.274228,0.849505 0.460504,1.187791 0.929215,1.6875 0.322427,0.34375 0.861349,0.9625 1.197604,1.375 0.336255,0.4125 0.843873,1.004627 1.128041,1.315838 0.284168,0.31121 0.793351,1.06632 1.131518,1.678022 0.454941,0.82293 0.757478,1.212178 1.163258,1.496662 2.121911,1.487628 4.696801,3.487516 5.334784,4.143469 0.453101,0.465864 0.928426,1.123887 1.181245,1.635279 l 0.423052,0.85573 0.02012,2.222202 c 0.01106,1.222211 0.05673,2.258805 0.101465,2.303543 0.162395,0.162395 2.619823,0.248687 7.6186,0.267525 4.521804,0.01704 5.081464,-0.002 4.916321,-0.167128 z m -3.601812,-16.611646 c 1.815407,-0.931374 2.881261,-3.07151 2.567779,-5.155868 l -0.109967,-0.731172 0.6875,-0.326236 c 1.198428,-0.568684 2.124473,-1.719117 2.496783,-3.101773 0.16277,-0.604479 0.201312,-1.894585 0.07393,-2.474555 -0.078,-0.355135 -0.05183,-0.385591 0.517315,-0.602052 0.8686,-0.33035 2.038074,-1.537968 2.418945,-2.49784 0.245542,-0.618817 0.298289,-0.97957 0.301561,-2.0625 0.0037,-1.219337 -0.0242,-1.371954 -0.392834,-2.150089 -0.487402,-1.02884 -1.322951,-1.886952 -2.266137,-2.327333 -0.583254,-0.272325 -0.892959,-0.332703 -1.712063,-0.333773 -1.161022,-0.0015 -1.912666,0.241026 -2.766336,0.892648 l -0.562949,0.429708 -0.447491,-0.392903 c -0.454104,-0.398708 -1.399142,-0.868258 -1.747499,-0.868258 -0.498596,0 0.280147,-1.9329 1.155984,-2.869241 0.707865,-0.756764 1.620218,-1.212421 2.692746,-1.344837 0.705509,-0.0871 0.816505,-0.138722 0.96513,-0.448832 0.144647,-0.301805 0.140144,-0.392832 -0.03245,-0.65625 -0.170832,-0.260722 -0.298045,-0.30584 -0.862325,-0.30584 -1.128864,0 -2.673152,0.590703 -3.270817,1.251116 -0.278922,0.308205 -0.43649,0.31781 -0.43649,0.02661 0,-0.122252 -0.189046,-0.61444 -0.420103,-1.09375 -0.503188,-1.04382 -1.472208,-2.055961 -2.377811,-2.48362 -1.259736,-0.594892 -2.825134,-0.685946 -3.273586,-0.190412 -0.172513,0.190625 -0.199509,0.440979 -0.15827,1.467716 0.04508,1.122455 0.09263,1.324702 0.509844,2.168884 0.756771,1.531224 2.224787,2.707655 3.64441,2.920541 l 0.536232,0.08041 -0.140876,0.703251 c -0.12695,0.633734 -0.177523,0.711091 -0.511609,0.782572 -0.626372,0.134019 -1.242847,0.441909 -1.715182,0.856625 l -0.451267,0.396218 -0.562948,-0.429708 c -0.85367,-0.651622 -1.605314,-0.894164 -2.766337,-0.892648 -0.818032,0.0011 -1.125102,0.06078 -1.6875,0.328174 -1.060442,0.504181 -1.681168,1.121325 -2.215258,2.202476 -0.460324,0.931827 -0.472227,0.990801 -0.471655,2.336997 5e-4,1.23512 0.03592,1.456571 0.335006,2.095806 0.441919,0.944513 1.320629,1.86431 2.201089,2.30401 0.392325,0.195928 0.72599,0.359528 0.741476,0.363555 0.01549,0.004 -0.02585,0.34269 -0.09186,0.752582 -0.333142,2.068621 0.796798,4.302732 2.609842,5.160166 l 0.713496,0.33743 -0.108688,0.496249 c -0.396853,1.811971 0.605633,4.252655 2.108484,5.133383 0.982788,0.575953 1.408674,0.682178 2.553071,0.636793 0.858853,-0.03406 1.190379,-0.107744 1.729688,-0.38443 z"
     id="path4630"
     inkscape:connector-curvature="0" /></svg>