<?xml version="1.0" encoding="UTF-8" standalone="no"?>
<svg
   xmlns:dc="http://purl.org/dc/elements/1.1/"
   xmlns:cc="http://creativecommons.org/ns#"
   xmlns:rdf="http://www.w3.org/1999/02/22-rdf-syntax-ns#"
   xmlns:svg="http://www.w3.org/2000/svg"
   xmlns="http://www.w3.org/2000/svg"
   xmlns:sodipodi="http://sodipodi.sourceforge.net/DTD/sodipodi-0.dtd"
   xmlns:inkscape="http://www.inkscape.org/namespaces/inkscape"
   version="1.1"
   id="Layer_1"
   x="0px"
   y="0px"
   viewBox="-51 -54 40 40"
   enable-background="new -51 -54 2022 1006"
   xml:space="preserve"
   sodipodi:docname="goods.svg"
   width="40"
   height="40"
   inkscape:version="0.92.2 (5c3e80d, 2017-08-06)"
   inkscape:export-filename="E:\project\www\grapes\img\goods.png"
   inkscape:export-xdpi="96"
   inkscape:export-ydpi="96"><metadata
     id="metadata4058"><rdf:RDF><cc:Work
         rdf:about=""><dc:format>image/svg+xml</dc:format><dc:type
           rdf:resource="http://purl.org/dc/dcmitype/StillImage" /><dc:title /></cc:Work></rdf:RDF></metadata><defs
     id="defs4056" /><sodipodi:namedview
     pagecolor="#ffffff"
     bordercolor="#666666"
     borderopacity="1"
     objecttolerance="10"
     gridtolerance="10"
     guidetolerance="10"
     inkscape:pageopacity="0"
     inkscape:pageshadow="2"
     inkscape:window-width="1366"
     inkscape:window-height="716"
     id="namedview4054"
     showgrid="false"
     inkscape:snap-grids="false"
     inkscape:snap-page="true"
     inkscape:zoom="2"
     inkscape:cx="33.402783"
     inkscape:cy="-13.38007"
     inkscape:window-x="-8"
     inkscape:window-y="-8"
     inkscape:window-maximized="1"
     inkscape:current-layer="Layer_1" /><g
     inkscape:groupmode="layer"
     id="layer1"
     inkscape:label="Layer 1"
     style="display:none"
     transform="translate(0,-966)" /><path
     style="fill-rule:evenodd;stroke-width:8"
     d=""
     id="path4602"
     inkscape:connector-curvature="0" /><path
     style="fill-rule:evenodd;stroke-width:8"
     d=""
     id="path4604"
     inkscape:connector-curvature="0" /><path
     style="fill:#61c0d9;fill-opacity:0;fill-rule:evenodd;stroke-width:0.125"
     d="m -28.583304,-13.811971 c -4.532922,-0.468957 -9.064947,-2.282148 -12.75,-5.101072 -1.033119,-0.790296 -2.933684,-2.639875 -3.870768,-3.766926 -5.518992,-6.637817 -7.18393,-15.840163 -4.353518,-24.0625 4.163545,-12.095083 17.003815,-19.05359 29.397553,-15.931368 12.92764,3.256723 20.943111,16.157278 18.188675,29.273885 -2.113639,10.065131 -10.329335,17.848545 -20.486942,19.408985 -1.572303,0.241541 -4.650827,0.331508 -6.125,0.178996 z m 8.894,-1.679356 c -0.237978,-0.237979 -0.380202,-1.55633 -0.301143,-2.791476 0.120077,-1.875984 0.747781,-2.862373 2.924052,-4.59492 0.636883,-0.507028 1.734361,-1.403845 2.438844,-1.992929 0.704481,-0.589084 1.621385,-1.273882 2.037561,-1.521776 1.053576,-0.627555 1.374934,-0.955413 2.001894,-2.042374 0.30047,-0.520929 0.64428,-1.028261 0.764021,-1.127405 0.11974,-0.09915 0.734851,-0.799012 1.366914,-1.555262 0.632062,-0.75625 1.263304,-1.476038 1.402757,-1.599528 0.139454,-0.12349 0.552065,-0.939115 0.916914,-1.8125 0.630115,-1.508384 1.326134,-2.80475 2.3898,-4.451102 0.680884,-1.053879 0.65114,-1.2007 -0.241864,-1.193884 -0.395312,0.003 -0.929687,0.08076 -1.1875,0.17277 -0.257812,0.09201 -0.46875,0.14344 -0.46875,0.114296 0,-0.02914 0.252874,-0.484972 0.561943,-1.012954 0.528776,-0.903308 0.89234,-1.744603 0.794265,-1.837951 -0.04901,-0.04665 -1.271508,-0.106101 -1.689416,-0.08216 -0.14889,0.0085 -0.475668,0.231803 -0.726173,0.496162 -0.44101,0.465398 -0.471059,0.47649 -0.946825,0.3495 -0.905652,-0.241731 -1.879776,0.478178 -2.79366,2.064603 -0.333985,0.57977 -0.337364,0.581716 -0.791936,0.456202 -1.191814,-0.329075 -2.172053,0.586224 -3.458791,3.229649 -1.553105,3.190636 -1.804039,3.728971 -2.001738,4.294394 -0.22306,0.637952 -1.381301,2.036528 -2.207221,2.66522 -0.304121,0.231496 -1.0764,0.680542 -1.716175,0.99788 -2.150918,1.066887 -3.970128,2.460897 -4.58847,3.51602 -0.167879,0.286463 -0.386175,0.855538 -0.485104,1.264611 l -0.17987,0.743769 -0.01041,-0.689352 c -0.01104,-0.730686 -0.18637,-1.148595 -0.994308,-2.369966 -1.002114,-1.514911 -3.001276,-3.063706 -4.779531,-3.702809 -0.570276,-0.204956 -1.211226,-0.560826 -1.674075,-0.929486 -1.003803,-0.799529 -2.744865,-2.626495 -3.430634,-3.599902 -0.305599,-0.433778 -0.713411,-0.901035 -0.90625,-1.038348 -0.192841,-0.137314 -0.350619,-0.349525 -0.350619,-0.47158 0,-0.122056 -0.116532,-0.554164 -0.258961,-0.960239 -0.214036,-0.610231 -0.245062,-0.90651 -0.178845,-1.707807 0.100328,-1.214064 -0.146027,-2.180969 -0.667477,-2.619739 -0.287143,-0.241615 -0.368358,-0.431766 -0.426972,-0.99968 -0.08853,-0.8578 -0.355969,-1.292315 -0.90741,-1.474307 -0.230553,-0.07609 -0.443915,-0.205494 -0.474136,-0.287565 -0.135456,-0.367849 -0.345659,0.210737 -0.627325,1.72672 l -0.301746,1.62406 -0.04731,-1.460057 c -0.05449,-1.681565 -0.186752,-1.973175 -1.108612,-2.444338 -0.300663,-0.15367 -0.59034,-0.350074 -0.643727,-0.436456 -0.256294,-0.414691 -0.385891,0.238284 -0.50529,2.545905 -0.06887,1.330971 -0.144688,2.439919 -0.168492,2.464325 -0.02381,0.02441 -0.219433,-0.156248 -0.434729,-0.401456 -0.565427,-0.643987 -1.212326,-1.000714 -1.964949,-1.083555 l -0.659017,-0.07254 v 0.415335 c 0,0.241251 0.229598,0.87272 0.547784,1.506586 0.678151,1.350959 1.559587,3.497654 2.013489,4.903753 0.274228,0.849505 0.460504,1.187791 0.929215,1.6875 0.322427,0.34375 0.861349,0.9625 1.197604,1.375 0.336255,0.4125 0.843873,1.004627 1.128041,1.315838 0.284168,0.31121 0.793351,1.06632 1.131518,1.678022 0.454941,0.82293 0.757478,1.212178 1.163258,1.496662 2.121911,1.487628 4.696801,3.487516 5.334784,4.143469 0.453101,0.465864 0.928426,1.123887 1.181245,1.635279 l 0.423052,0.85573 0.02012,2.222202 c 0.01106,1.222211 0.05673,2.258805 0.101465,2.303543 0.162395,0.162395 2.619823,0.248687 7.6186,0.267525 4.521804,0.01704 5.081464,-0.002 4.916321,-0.167128 z m -3.601812,-16.611646 c 1.815407,-0.931374 2.881261,-3.07151 2.567779,-5.155868 l -0.109967,-0.731172 0.6875,-0.326236 c 1.198428,-0.568684 2.124473,-1.719117 2.496783,-3.101773 0.16277,-0.604479 0.201312,-1.894585 0.07393,-2.474555 -0.078,-0.355135 -0.05183,-0.385591 0.517315,-0.602052 0.8686,-0.33035 2.038074,-1.537968 2.418945,-2.49784 0.245542,-0.618817 0.298289,-0.97957 0.301561,-2.0625 0.0037,-1.219337 -0.0242,-1.371954 -0.392834,-2.150089 -0.487402,-1.02884 -1.322951,-1.886952 -2.266137,-2.327333 -0.583254,-0.272325 -0.892959,-0.332703 -1.712063,-0.333773 -1.161022,-0.0015 -1.912666,0.241026 -2.766336,0.892648 l -0.562949,0.429708 -0.447491,-0.392903 c -0.454104,-0.398708 -1.399142,-0.868258 -1.747499,-0.868258 -0.498596,0 0.280147,-1.9329 1.155984,-2.869241 0.707865,-0.756764 1.620218,-1.212421 2.692746,-1.344837 0.705509,-0.0871 0.816505,-0.138722 0.96513,-0.448832 0.144647,-0.301805 0.140144,-0.392832 -0.03245,-0.65625 -0.170832,-0.260722 -0.298045,-0.30584 -0.862325,-0.30584 -1.128864,0 -2.673152,0.590703 -3.270817,1.251116 -0.278922,0.308205 -0.43649,0.31781 -0.43649,0.02661 0,-0.122252 -0.189046,-0.61444 -0.420103,-1.09375 -0.503188,-1.04382 -1.472208,-2.055961 -2.377811,-2.48362 -1.259736,-0.594892 -2.825134,-0.685946 -3.273586,-0.190412 -0.172513,0.190625 -0.199509,0.440979 -0.15827,1.467716 0.04508,1.122455 0.09263,1.324702 0.509844,2.168884 0.756771,1.531224 2.224787,2.707655 3.64441,2.920541 l 0.536232,0.08041 -0.140876,0.703251 c -0.12695,0.633734 -0.177523,0.711091 -0.511609,0.782572 -0.626372,0.134019 -1.242847,0.441909 -1.715182,0.856625 l -0.451267,0.396218 -0.562948,-0.429708 c -0.85367,-0.651622 -1.605314,-0.894164 -2.766337,-0.892648 -0.818032,0.0011 -1.125102,0.06078 -1.6875,0.328174 -1.060442,0.504181 -1.681168,1.121325 -2.215258,2.202476 -0.460324,0.931827 -0.472227,0.990801 -0.471655,2.336997 5e-4,1.23512 0.03592,1.456571 0.335006,2.095806 0.441919,0.944513 1.320629,1.86431 2.201089,2.30401 0.392325,0.195928 0.72599,0.359528 0.741476,0.363555 0.01549,0.004 -0.02585,0.34269 -0.09186,0.752582 -0.333142,2.068621 0.796798,4.302732 2.609842,5.160166 l 0.713496,0.33743 -0.108688,0.496249 c -0.396853,1.811971 0.605633,4.252655 2.108484,5.133383 0.982788,0.575953 1.408674,0.682178 2.553071,0.636793 0.858853,-0.03406 1.190379,-0.107744 1.729688,-0.38443 z"
     id="path4630"
     inkscape:connector-curvature="0" /><ellipse
     style="fill:#9eb310;fill-opacity:1;fill-rule:evenodd;stroke:none;stroke-width:0.52499998;stroke-linejoin:round;stroke-miterlimit:4;stroke-dasharray:none;stroke-opacity:1"
     id="path5638"
     cx="-31"
     cy="-34.000004"
     rx="20"
     ry="19.75"
     inkscape:export-xdpi="96"
     inkscape:export-ydpi="96" /><path
     style="fill:none;fill-rule:evenodd;stroke:#ffffff;stroke-width:0.52499998;stroke-miterlimit:4;stroke-dasharray:none;stroke-opacity:1"
     d="m -32.34581,-20.11747 c -1.224971,-0.401863 -2.427189,-1.542945 -2.880889,-2.734393 -0.32039,-0.841365 -0.441779,-2.125989 -0.270728,-2.865021 l 0.120747,-0.52169 -0.781137,-0.384553 c -2.028138,-0.998448 -3.045277,-3.349766 -2.477971,-5.728318 0.05119,-0.21461 0.01204,-0.281528 -0.165221,-0.282423 -0.39358,-0.002 -1.491168,-0.708929 -1.970981,-1.269482 -0.250703,-0.29289 -0.608935,-0.843999 -0.796072,-1.224687 -0.30776,-0.62607 -0.340248,-0.823446 -0.340248,-2.067158 0,-1.230171 0.03529,-1.450286 0.335007,-2.089758 0.443329,-0.94587 1.344432,-1.888952 2.211926,-2.314972 0.601287,-0.295287 0.856882,-0.345094 1.765567,-0.344049 1.180574,0.0014 1.86569,0.235892 2.761402,0.945309 l 0.491527,0.389296 0.45442,-0.398985 c 0.47304,-0.415335 1.215491,-0.782621 1.874718,-0.927411 0.34864,-0.07658 0.391168,-0.139396 0.454888,-0.671951 0.03866,-0.323114 0.105492,-0.678261 0.148514,-0.789217 0.06333,-0.163332 -0.03912,-0.217305 -0.538172,-0.283506 -1.456062,-0.193154 -2.956546,-1.369595 -3.650112,-2.86184 -0.576533,-1.240442 -0.753145,-3.038218 -0.34869,-3.549395 0.32552,-0.411414 1.941435,-0.293815 3.036641,0.220993 1.252518,0.588753 2.432198,2.042837 2.810126,3.463787 l 0.143172,0.538302 0.456113,-0.400472 c 0.771198,-0.677122 1.966116,-1.164165 2.987802,-1.217815 0.812081,-0.04264 0.908104,-0.02222 1.038174,0.220819 0.202657,0.378666 0.04683,0.746679 -0.347604,0.820905 -1.869981,0.351905 -2.829385,0.811802 -3.524546,1.689515 -0.505554,0.638313 -0.995444,1.734276 -1.031523,2.307681 -0.02844,0.452044 -0.01147,0.47227 0.548805,0.654098 0.317985,0.103197 0.870032,0.408544 1.22677,0.678549 l 0.648617,0.490919 0.482041,-0.381784 c 0.886079,-0.701787 1.574669,-0.936444 2.751917,-0.937797 0.908687,-0.001 1.16428,0.04876 1.765568,0.344049 0.872427,0.428443 1.773632,1.374825 2.204461,2.314972 0.656753,1.43315 0.499088,3.445844 -0.377851,4.823511 -0.466408,0.732727 -1.425731,1.518843 -2.100031,1.720868 -0.27068,0.0811 -0.492147,0.184466 -0.492147,0.229707 0,0.04524 0.05823,0.397272 0.129409,0.78229 0.368781,1.994925 -0.744017,4.207802 -2.567401,5.10545 l -0.781136,0.384553 0.121227,0.52169 c 0.168034,0.723112 0.04409,2.009529 -0.276044,2.865176 -0.334247,0.893356 -1.245857,1.91525 -2.146135,2.405764 -0.564763,0.307711 -0.830844,0.368822 -1.72992,0.397317 -0.584375,0.01852 -1.203125,-0.01246 -1.375,-0.06884 z m 0.474042,-1.315495 c -0.323652,-0.08712 -0.808171,-0.310657 -1.076709,-0.496754 -0.497349,-0.344663 -1.113299,-1.310705 -1.280132,-2.007731 -0.07248,-0.302814 -0.09428,-0.323172 -0.104406,-0.09748 -0.01786,0.398135 0.289867,1.087425 0.738156,1.653436 0.417411,0.527024 1.491968,1.128587 1.992342,1.115362 0.216696,-0.0057 0.130228,-0.0593 -0.269251,-0.166833 z m 1.367329,0.08865 c -0.121621,-0.03169 -0.290371,-0.02961 -0.375,0.0046 -0.08463,0.03424 0.01488,0.06017 0.221129,0.05762 0.20625,-0.0025 0.275492,-0.03056 0.153871,-0.06226 z m 0.877379,-0.287006 c 0.564429,-0.344139 0.511623,-0.428267 -0.0625,-0.09957 -0.577438,0.330595 -0.600794,0.348315 -0.458333,0.347734 0.06302,-2.5e-4 0.297396,-0.11193 0.520833,-0.248162 z m 0.90625,-0.75137 c 0.146863,-0.20625 0.238899,-0.375 0.204524,-0.375 -0.03438,0 -0.182661,0.16875 -0.329524,0.375 -0.146862,0.20625 -0.238898,0.375 -0.204523,0.375 0.03438,0 0.182661,-0.16875 0.329523,-0.375 z m 0.475859,-0.815808 c -0.03849,-0.03849 -0.108381,0.03089 -0.155322,0.154166 -0.06783,0.17815 -0.05348,0.192508 0.06997,0.06997 0.08543,-0.08479 0.123833,-0.185655 0.08535,-0.224141 z m 0.224663,-0.900339 c -0.04154,-0.04154 -0.07108,0.03229 -0.06565,0.164063 0.006,0.145619 0.03562,0.175237 0.07552,0.07552 0.03611,-0.09023 0.03167,-0.198046 -0.0099,-0.239584 z m -6.364356,-0.877603 c -0.03144,-0.120313 -0.05717,-0.02188 -0.05717,0.21875 0,0.240625 0.02572,0.339062 0.05717,0.21875 0.03144,-0.120313 0.03144,-0.317188 0,-0.4375 z m 6.496619,0.0625 c -0.03468,-0.08594 -0.06305,-0.01563 -0.06305,0.15625 0,0.171875 0.02837,0.242187 0.06305,0.15625 0.03468,-0.08594 0.03468,-0.226563 0,-0.3125 z m -6.375,-0.75 c -0.03468,-0.08594 -0.06305,-0.01563 -0.06305,0.15625 0,0.171875 0.02837,0.242187 0.06305,0.15625 0.03468,-0.08594 0.03468,-0.226563 0,-0.3125 z m 6.25,0 c -0.03468,-0.08594 -0.06305,-0.01563 -0.06305,0.15625 0,0.171875 0.02837,0.242187 0.06305,0.15625 0.03468,-0.08594 0.03468,-0.226563 0,-0.3125 z m -7.383579,-2.094935 c -1.270544,-0.496148 -1.942065,-1.4969 -2.084224,-3.106072 l -0.09543,-1.080243 0.03114,1.0625 c 0.03585,1.223063 0.265757,1.785301 1.032466,2.524881 0.474289,0.457507 1.179133,0.841225 1.541841,0.839379 0.103125,-5e-4 -0.08848,-0.108725 -0.425793,-0.240445 z m 8.617309,0.07006 c 0.238417,-0.09962 0.433485,-0.209247 0.433485,-0.243622 0,-0.03438 -0.182812,0.0117 -0.40625,0.102384 -0.223437,0.09069 -0.490625,0.195876 -0.59375,0.233753 -0.121518,0.04463 -0.131102,0.07234 -0.02724,0.07874 0.08815,0.0054 0.355333,-0.07164 0.59375,-0.171253 z m 1.640868,-1.486745 c 0.102327,-0.195451 0.158915,-0.382502 0.125747,-0.41567 -0.03317,-0.03317 -0.09995,0.06462 -0.148416,0.217313 -0.04846,0.15269 -0.318814,0.536616 -0.600784,0.853171 l -0.512671,0.575553 0.475035,-0.4375 c 0.26127,-0.240625 0.55876,-0.597415 0.661089,-0.792867 z m 0.378784,-1.550883 c -0.03144,-0.120313 -0.05717,-0.02188 -0.05717,0.21875 0,0.240625 0.02573,0.339062 0.05717,0.21875 0.03144,-0.120313 0.03144,-0.317188 0,-0.4375 z m 0,-1 c -0.03144,-0.120313 -0.05717,-0.02188 -0.05717,0.21875 0,0.240625 0.02573,0.339062 0.05717,0.21875 0.03144,-0.120313 0.03144,-0.317188 0,-0.4375 z m -13.778317,-2.23017 c -1.204015,-0.427499 -2.021004,-1.586944 -2.179623,-3.093254 -0.08787,-0.834402 -0.09544,-0.851647 -0.111254,-0.253431 -0.02347,0.887641 0.311441,1.832481 0.877492,2.47555 0.468927,0.532729 1.361224,1.07933 1.730535,1.060086 0.103125,-0.0054 -0.03959,-0.0904 -0.31715,-0.188951 z m 14.81715,0.06821 c 0.136933,-0.09266 0.08637,-0.10426 -0.1875,-0.043 -0.459616,0.102809 -0.559388,0.174354 -0.239583,0.171799 0.131771,-10e-4 0.323958,-0.05901 0.427083,-0.128799 z m 0.979004,-0.567819 c 0.288203,-0.24669 0.582683,-0.570127 0.6544,-0.71875 0.08375,-0.17356 0.03104,-0.142132 -0.147367,0.08786 -0.152772,0.196943 -0.501817,0.520381 -0.775657,0.71875 -0.273838,0.198368 -0.443325,0.36067 -0.376635,0.36067 0.06669,0 0.357058,-0.201838 0.645259,-0.448528 z m 1.135296,-1.801472 c -0.0045,-0.123633 -0.04347,-0.102343 -0.1143,0.0625 -0.147665,0.343636 -0.147665,0.540996 0,0.3125 0.06665,-0.103125 0.11808,-0.271875 0.1143,-0.375 z m 0.100232,-1.34375 c -0.02864,-0.189063 -0.05207,-0.03438 -0.05207,0.34375 0,0.378125 0.02343,0.532812 0.05207,0.34375 0.02864,-0.189063 0.02864,-0.498438 0,-0.6875 z m -18.372956,-1.90634 c 0.251363,-0.29366 0.7414,-0.671465 1.088973,-0.839566 0.449547,-0.21742 0.523713,-0.282896 0.256951,-0.226844 -0.868024,0.182388 -1.948072,1.331034 -2.119389,2.254 -0.05115,0.275558 -0.01842,0.23861 0.123419,-0.139331 0.106163,-0.282882 0.398684,-0.754599 0.650046,-1.048259 z m 18.233946,1.158944 c -0.04154,-0.04154 -0.07108,0.03229 -0.06565,0.164062 0.006,0.145618 0.03562,0.175238 0.07552,0.07552 0.03611,-0.09023 0.03167,-0.198047 -0.0099,-0.239583 z m -0.07552,-0.262424 c 0,-0.05696 -0.169181,-0.358987 -0.37596,-0.671165 -0.419326,-0.633067 -1.118775,-1.168068 -1.68654,-1.290015 -0.26673,-0.05729 -0.19455,0.0069 0.25,0.222487 0.648194,0.314279 1.474962,1.119532 1.620614,1.578445 0.08391,0.264371 0.191886,0.354546 0.191886,0.160248 z m -13.793191,-1.331452 c -0.566766,-0.500649 -1.424612,-0.821474 -2.135328,-0.798589 -0.464176,0.01495 -0.448246,0.02423 0.180952,0.105462 0.771283,0.09957 1.376746,0.35349 1.935065,0.811519 0.55848,0.458161 0.572777,0.37051 0.01931,-0.118392 z m 3.51488,-0.559218 c 0.991754,-0.275434 1.851224,-0.09399 2.744118,0.579312 0.488968,0.368714 0.540274,0.388171 0.284191,0.107772 -0.556183,-0.608996 -1.217564,-0.872919 -2.1875,-0.872919 -0.969935,0 -1.631316,0.263923 -2.1875,0.872919 -0.256082,0.280399 -0.204776,0.260942 0.284191,-0.107772 0.328181,-0.24747 0.806306,-0.50816 1.0625,-0.579312 z m 5.354872,0.605831 c 0.59942,-0.479114 0.920277,-0.612007 1.798437,-0.744877 l 0.6875,-0.104023 -0.781298,0.0443 c -0.814502,0.04619 -1.59941,0.396818 -2.081977,0.930048 -0.340323,0.376053 -0.185838,0.324692 0.377338,-0.125453 z m -4.470292,-5.267841 c -0.01691,-0.366739 -0.02372,-0.373567 -0.07006,-0.07021 -0.02823,0.184822 -0.146365,0.361109 -0.262521,0.39175 -0.149792,0.03951 -0.129424,0.05992 0.07006,0.07021 0.240471,0.0124 0.278535,-0.0444 0.262521,-0.39175 z m -0.832833,0.19586 c -0.09023,-0.03611 -0.198047,-0.03167 -0.239584,0.0099 -0.04154,0.04154 0.03229,0.07108 0.164063,0.06565 0.145618,-0.006 0.175237,-0.03562 0.07552,-0.07552 z m 0.38104,-1.824822 c -0.590629,-1.256471 -1.631819,-2.056387 -2.812853,-2.16103 l -0.529125,-0.04688 0.511661,0.1117 c 0.789185,0.172285 1.336964,0.436028 1.86073,0.8959 0.471936,0.414366 1.175985,1.684519 1.204511,2.173024 0.01262,0.216068 0.02246,0.219772 0.07253,0.02729 0.03186,-0.122491 -0.106493,-0.572491 -0.307451,-1 z"
     id="path4628"
     inkscape:connector-curvature="0"
     inkscape:export-xdpi="96"
     inkscape:export-ydpi="96" /></svg>