<?xml version="1.0" encoding="UTF-8" standalone="no"?>
<svg
   xmlns:dc="http://purl.org/dc/elements/1.1/"
   xmlns:cc="http://creativecommons.org/ns#"
   xmlns:rdf="http://www.w3.org/1999/02/22-rdf-syntax-ns#"
   xmlns:svg="http://www.w3.org/2000/svg"
   xmlns="http://www.w3.org/2000/svg"
   xmlns:sodipodi="http://sodipodi.sourceforge.net/DTD/sodipodi-0.dtd"
   xmlns:inkscape="http://www.inkscape.org/namespaces/inkscape"
   version="1.1"
   id="Layer_1"
   x="0px"
   y="0px"
   viewBox="-51 -54 40 40"
   enable-background="new -51 -54 2022 1006"
   xml:space="preserve"
   sodipodi:docname="services.svg"
   width="40"
   height="40"
   inkscape:version="0.92.2 (5c3e80d, 2017-08-06)"
   inkscape:export-filename="E:\project\www\grapes\img\goods.png"
   inkscape:export-xdpi="96"
   inkscape:export-ydpi="96"><metadata
     id="metadata4058"><rdf:RDF><cc:Work
         rdf:about=""><dc:format>image/svg+xml</dc:format><dc:type
           rdf:resource="http://purl.org/dc/dcmitype/StillImage" /><dc:title /></cc:Work></rdf:RDF></metadata><defs
     id="defs4056" /><sodipodi:namedview
     pagecolor="#ffffff"
     bordercolor="#666666"
     borderopacity="1"
     objecttolerance="10"
     gridtolerance="10"
     guidetolerance="10"
     inkscape:pageopacity="0"
     inkscape:pageshadow="2"
     inkscape:window-width="1366"
     inkscape:window-height="716"
     id="namedview4054"
     showgrid="false"
     inkscape:snap-grids="false"
     inkscape:snap-page="true"
     inkscape:zoom="4"
     inkscape:cx="18.137913"
     inkscape:cy="21.40123"
     inkscape:window-x="-8"
     inkscape:window-y="-8"
     inkscape:window-maximized="1"
     inkscape:current-layer="Layer_1" /><g
     inkscape:groupmode="layer"
     id="layer1"
     inkscape:label="Layer 1"
     style="display:none"
     transform="translate(0,-966)" /><path
     style="fill-rule:evenodd;stroke-width:8"
     d=""
     id="path4602"
     inkscape:connector-curvature="0" /><path
     style="fill-rule:evenodd;stroke-width:8"
     d=""
     id="path4604"
     inkscape:connector-curvature="0" /><path
     style="fill:#61c0d9;fill-opacity:0;fill-rule:evenodd;stroke-width:0.125"
     d="m -28.583304,-13.811971 c -4.532922,-0.468957 -9.064947,-2.282148 -12.75,-5.101072 -1.033119,-0.790296 -2.933684,-2.639875 -3.870768,-3.766926 -5.518992,-6.637817 -7.18393,-15.840163 -4.353518,-24.0625 4.163545,-12.095083 17.003815,-19.05359 29.397553,-15.931368 12.92764,3.256723 20.943111,16.157278 18.188675,29.273885 -2.113639,10.065131 -10.329335,17.848545 -20.486942,19.408985 -1.572303,0.241541 -4.650827,0.331508 -6.125,0.178996 z m 8.894,-1.679356 c -0.237978,-0.237979 -0.380202,-1.55633 -0.301143,-2.791476 0.120077,-1.875984 0.747781,-2.862373 2.924052,-4.59492 0.636883,-0.507028 1.734361,-1.403845 2.438844,-1.992929 0.704481,-0.589084 1.621385,-1.273882 2.037561,-1.521776 1.053576,-0.627555 1.374934,-0.955413 2.001894,-2.042374 0.30047,-0.520929 0.64428,-1.028261 0.764021,-1.127405 0.11974,-0.09915 0.734851,-0.799012 1.366914,-1.555262 0.632062,-0.75625 1.263304,-1.476038 1.402757,-1.599528 0.139454,-0.12349 0.552065,-0.939115 0.916914,-1.8125 0.630115,-1.508384 1.326134,-2.80475 2.3898,-4.451102 0.680884,-1.053879 0.65114,-1.2007 -0.241864,-1.193884 -0.395312,0.003 -0.929687,0.08076 -1.1875,0.17277 -0.257812,0.09201 -0.46875,0.14344 -0.46875,0.114296 0,-0.02914 0.252874,-0.484972 0.561943,-1.012954 0.528776,-0.903308 0.89234,-1.744603 0.794265,-1.837951 -0.04901,-0.04665 -1.271508,-0.106101 -1.689416,-0.08216 -0.14889,0.0085 -0.475668,0.231803 -0.726173,0.496162 -0.44101,0.465398 -0.471059,0.47649 -0.946825,0.3495 -0.905652,-0.241731 -1.879776,0.478178 -2.79366,2.064603 -0.333985,0.57977 -0.337364,0.581716 -0.791936,0.456202 -1.191814,-0.329075 -2.172053,0.586224 -3.458791,3.229649 -1.553105,3.190636 -1.804039,3.728971 -2.001738,4.294394 -0.22306,0.637952 -1.381301,2.036528 -2.207221,2.66522 -0.304121,0.231496 -1.0764,0.680542 -1.716175,0.99788 -2.150918,1.066887 -3.970128,2.460897 -4.58847,3.51602 -0.167879,0.286463 -0.386175,0.855538 -0.485104,1.264611 l -0.17987,0.743769 -0.01041,-0.689352 c -0.01104,-0.730686 -0.18637,-1.148595 -0.994308,-2.369966 -1.002114,-1.514911 -3.001276,-3.063706 -4.779531,-3.702809 -0.570276,-0.204956 -1.211226,-0.560826 -1.674075,-0.929486 -1.003803,-0.799529 -2.744865,-2.626495 -3.430634,-3.599902 -0.305599,-0.433778 -0.713411,-0.901035 -0.90625,-1.038348 -0.192841,-0.137314 -0.350619,-0.349525 -0.350619,-0.47158 0,-0.122056 -0.116532,-0.554164 -0.258961,-0.960239 -0.214036,-0.610231 -0.245062,-0.90651 -0.178845,-1.707807 0.100328,-1.214064 -0.146027,-2.180969 -0.667477,-2.619739 -0.287143,-0.241615 -0.368358,-0.431766 -0.426972,-0.99968 -0.08853,-0.8578 -0.355969,-1.292315 -0.90741,-1.474307 -0.230553,-0.07609 -0.443915,-0.205494 -0.474136,-0.287565 -0.135456,-0.367849 -0.345659,0.210737 -0.627325,1.72672 l -0.301746,1.62406 -0.04731,-1.460057 c -0.05449,-1.681565 -0.186752,-1.973175 -1.108612,-2.444338 -0.300663,-0.15367 -0.59034,-0.350074 -0.643727,-0.436456 -0.256294,-0.414691 -0.385891,0.238284 -0.50529,2.545905 -0.06887,1.330971 -0.144688,2.439919 -0.168492,2.464325 -0.02381,0.02441 -0.219433,-0.156248 -0.434729,-0.401456 -0.565427,-0.643987 -1.212326,-1.000714 -1.964949,-1.083555 l -0.659017,-0.07254 v 0.415335 c 0,0.241251 0.229598,0.87272 0.547784,1.506586 0.678151,1.350959 1.559587,3.497654 2.013489,4.903753 0.274228,0.849505 0.460504,1.187791 0.929215,1.6875 0.322427,0.34375 0.861349,0.9625 1.197604,1.375 0.336255,0.4125 0.843873,1.004627 1.128041,1.315838 0.284168,0.31121 0.793351,1.06632 1.131518,1.678022 0.454941,0.82293 0.757478,1.212178 1.163258,1.496662 2.121911,1.487628 4.696801,3.487516 5.334784,4.143469 0.453101,0.465864 0.928426,1.123887 1.181245,1.635279 l 0.423052,0.85573 0.02012,2.222202 c 0.01106,1.222211 0.05673,2.258805 0.101465,2.303543 0.162395,0.162395 2.619823,0.248687 7.6186,0.267525 4.521804,0.01704 5.081464,-0.002 4.916321,-0.167128 z m -3.601812,-16.611646 c 1.815407,-0.931374 2.881261,-3.07151 2.567779,-5.155868 l -0.109967,-0.731172 0.6875,-0.326236 c 1.198428,-0.568684 2.124473,-1.719117 2.496783,-3.101773 0.16277,-0.604479 0.201312,-1.894585 0.07393,-2.474555 -0.078,-0.355135 -0.05183,-0.385591 0.517315,-0.602052 0.8686,-0.33035 2.038074,-1.537968 2.418945,-2.49784 0.245542,-0.618817 0.298289,-0.97957 0.301561,-2.0625 0.0037,-1.219337 -0.0242,-1.371954 -0.392834,-2.150089 -0.487402,-1.02884 -1.322951,-1.886952 -2.266137,-2.327333 -0.583254,-0.272325 -0.892959,-0.332703 -1.712063,-0.333773 -1.161022,-0.0015 -1.912666,0.241026 -2.766336,0.892648 l -0.562949,0.429708 -0.447491,-0.392903 c -0.454104,-0.398708 -1.399142,-0.868258 -1.747499,-0.868258 -0.498596,0 0.280147,-1.9329 1.155984,-2.869241 0.707865,-0.756764 1.620218,-1.212421 2.692746,-1.344837 0.705509,-0.0871 0.816505,-0.138722 0.96513,-0.448832 0.144647,-0.301805 0.140144,-0.392832 -0.03245,-0.65625 -0.170832,-0.260722 -0.298045,-0.30584 -0.862325,-0.30584 -1.128864,0 -2.673152,0.590703 -3.270817,1.251116 -0.278922,0.308205 -0.43649,0.31781 -0.43649,0.02661 0,-0.122252 -0.189046,-0.61444 -0.420103,-1.09375 -0.503188,-1.04382 -1.472208,-2.055961 -2.377811,-2.48362 -1.259736,-0.594892 -2.825134,-0.685946 -3.273586,-0.190412 -0.172513,0.190625 -0.199509,0.440979 -0.15827,1.467716 0.04508,1.122455 0.09263,1.324702 0.509844,2.168884 0.756771,1.531224 2.224787,2.707655 3.64441,2.920541 l 0.536232,0.08041 -0.140876,0.703251 c -0.12695,0.633734 -0.177523,0.711091 -0.511609,0.782572 -0.626372,0.134019 -1.242847,0.441909 -1.715182,0.856625 l -0.451267,0.396218 -0.562948,-0.429708 c -0.85367,-0.651622 -1.605314,-0.894164 -2.766337,-0.892648 -0.818032,0.0011 -1.125102,0.06078 -1.6875,0.328174 -1.060442,0.504181 -1.681168,1.121325 -2.215258,2.202476 -0.460324,0.931827 -0.472227,0.990801 -0.471655,2.336997 5e-4,1.23512 0.03592,1.456571 0.335006,2.095806 0.441919,0.944513 1.320629,1.86431 2.201089,2.30401 0.392325,0.195928 0.72599,0.359528 0.741476,0.363555 0.01549,0.004 -0.02585,0.34269 -0.09186,0.752582 -0.333142,2.068621 0.796798,4.302732 2.609842,5.160166 l 0.713496,0.33743 -0.108688,0.496249 c -0.396853,1.811971 0.605633,4.252655 2.108484,5.133383 0.982788,0.575953 1.408674,0.682178 2.553071,0.636793 0.858853,-0.03406 1.190379,-0.107744 1.729688,-0.38443 z"
     id="path4630"
     inkscape:connector-curvature="0" /><ellipse
     style="fill:#e7252e;fill-opacity:1;fill-rule:evenodd;stroke:#ffffff;stroke-width:0.5;stroke-linejoin:round;stroke-miterlimit:4;stroke-dasharray:none;stroke-opacity:1"
     id="path5437"
     cx="-30.875"
     cy="-34.014408"
     rx="19.756538"
     ry="19.569038" /><path
     id="path5627-9"
     style="fill:none;stroke:#ffffff;stroke-width:0.5;stroke-miterlimit:4;stroke-dasharray:none;stroke-opacity:1"
     d="m -83.617988,-54.57225 c -0.36417,0.0157 -0.303144,0.0232 -0.03148,0.0264 0.0097,-0.008 0.02155,-0.0178 0.03148,-0.0264 z m 53.381015,5.771014 c -0.378065,-0.0086 -0.754743,0.02295 -0.83548,0.09839 -0.367155,0.343069 -0.393966,3.339382 -0.0339,3.829744 0.205573,0.279993 0.204286,0.319212 -0.01938,0.436726 -0.541905,0.284796 -0.775467,0.664664 -1.159983,1.883678 -0.221199,0.701305 -1.082846,3.409238 -1.915546,6.018168 -0.8327,2.608927 -1.687223,5.298417 -1.898594,5.977378 -0.211363,0.678961 -0.482599,1.467784 -0.602997,1.754099 l -0.217951,0.520711 0.07748,-0.777466 c 0.111379,-1.107249 0.12743,-1.22653 0.341455,-2.627551 0.105941,-0.693384 0.252612,-1.726093 0.326927,-2.296407 0.340713,-2.614745 0.414949,-3.159121 0.523083,-3.860939 0.06355,-0.412412 0.08049,-0.827287 0.03875,-0.921442 -0.09749,-0.220071 -0.693116,-0.457282 -1.135766,-0.451122 -0.40674,0.0059 -0.563557,0.441516 -0.678071,1.886077 -0.03956,0.49867 -0.09787,0.994243 -0.128348,1.101411 -0.03044,0.107157 -0.202817,1.36262 -0.382625,2.788324 -0.414117,3.283633 -0.4177,3.318819 -0.586045,4.405644 -0.192583,1.243276 -0.194614,1.248076 -0.428637,1.689311 -0.212218,0.400129 -0.538863,2.719855 -0.409263,2.903503 0.03947,0.05599 0.09728,1.084429 0.130769,2.286809 0.03344,1.20238 0.08902,2.229118 0.123507,2.282009 0.133764,0.205034 0.331516,0.0769 0.40442,-0.263956 0.04198,-0.196272 0.315288,-1.062686 0.610262,-1.92447 0.294975,-0.861788 0.535165,-1.679452 0.532768,-1.818887 -0.0024,-0.139438 0.132757,-0.313761 0.300289,-0.386335 0.200761,-0.08697 0.410654,-0.419501 0.612683,-0.976633 0.168586,-0.464884 0.492093,-1.342845 0.719239,-1.950865 0.410771,-1.099553 2.879041,-7.944346 4.383233,-12.153919 l 0.787046,-2.205223 0.503709,-0.036 c 0.412646,-0.02967 0.517266,0.01589 0.583624,0.247158 0.07623,0.26585 0.659931,1.862039 1.748449,4.78478 0.263654,0.707933 0.699885,1.896107 0.968671,2.639549 2.169443,6.000654 2.96578,8.221332 3.351599,9.334402 1.100919,3.176211 1.256192,3.607731 1.302861,3.649775 0.02728,0.02456 0.174119,-0.06536 0.326924,-0.199166 0.276399,-0.242013 0.274538,-0.254937 -0.169507,-2.313204 -0.37952,-1.75917 -0.789591,-3.094156 -2.351454,-7.659489 -0.108985,-0.318703 -0.328275,-0.955457 -0.489178,-1.415758 -0.160901,-0.460302 -0.440511,-1.270887 -0.619949,-1.80209 -0.179426,-0.531206 -0.665608,-1.922297 -1.080067,-3.090673 -0.414464,-1.168373 -0.942963,-2.76225 -1.174513,-3.541793 -0.231553,-0.779541 -0.490242,-1.592174 -0.573939,-1.804491 -0.08368,-0.212311 -0.194662,-0.550042 -0.247009,-0.751071 -0.05236,-0.201024 -0.26595,-0.504337 -0.47465,-0.674284 -0.336349,-0.27389 -0.359365,-0.344474 -0.205842,-0.614295 0.240586,-0.422837 0.214369,-3.647323 -0.03148,-3.863339 -0.09026,-0.07931 -0.469515,-0.128231 -0.847587,-0.136775 z m -0.179204,0.309547 c 0.244622,-0.0035 0.259442,0.105692 0.213105,1.614924 -0.03725,1.214166 -0.0079,1.616725 0.121089,1.614923 0.09458,-0.0012 0.134515,0.05775 0.08718,0.129577 -0.110752,0.168097 -0.600988,0.176915 -0.66596,0.01204 -0.02738,-0.06949 -0.04286,-0.855981 -0.0339,-1.746901 0.01494,-1.471315 0.04028,-1.621208 0.278492,-1.62452 z m 0.816105,2.032451 c 0.01094,-0.0054 0.02441,0.01541 0.03875,0.06238 0.03831,0.125351 0.03945,0.298211 0.0025,0.386335 -0.03758,0.08812 -0.06907,-0.01452 -0.07023,-0.227961 0,-0.133422 0.01074,-0.211486 0.02907,-0.220763 z m -0.64901,2.10924 c 0.270245,5.94e-4 0.511379,0.05976 0.627214,0.182368 0.198033,0.209594 0.186324,0.216179 -0.624793,0.268755 -0.348459,0.0226 -0.628926,0.12386 -0.745876,0.273553 -0.210167,0.269036 -0.24052,1.542665 -0.0339,1.422955 0.0724,-0.04192 0.17085,-0.02114 0.217949,0.04559 0.135446,0.191937 -0.111538,0.263168 -0.348722,0.100776 -0.693379,-0.474718 -0.735663,-1.53572 -0.07992,-2.018055 0.245065,-0.180257 0.640584,-0.27678 0.988044,-0.275954 z m 1.060694,0.499114 c 0.07848,-0.0012 0.144156,0.05602 0.1453,0.127178 0.001,0.07115 -0.06195,0.130877 -0.140456,0.131978 -0.07848,0.0012 -0.144041,-0.05602 -0.145302,-0.127179 -0.0012,-0.07113 0.06199,-0.130878 0.140458,-0.131977 z m -1.317393,0.151174 c 0.405497,0.0012 0.752023,0.180708 0.755565,0.391134 0.0048,0.274132 -0.07029,0.285392 -0.532771,0.09119 -0.300092,-0.12604 -0.465279,-0.482942 -0.222794,-0.482317 z m -0.30513,0.518312 c 0.198729,-0.003 0.925559,0.396325 0.927502,0.508712 0.003,0.178646 -0.619944,0.166237 -0.828214,-0.0168 -0.176274,-0.154902 -0.243168,-0.489917 -0.09929,-0.491916 z m -1.048585,0.830257 c 0.04893,-0.0023 0.09768,0.04913 0.159829,0.119984 0.336714,0.384041 0.329924,0.45486 -0.1453,1.737302 -0.225289,0.607972 -0.404016,1.203404 -0.397155,1.322174 0.0068,0.118768 0.111048,-0.06233 0.230058,-0.403131 0.119007,-0.340797 0.244212,-0.596424 0.278494,-0.566304 0.03426,0.03015 -0.163371,0.688847 -0.438324,1.463751 -0.809547,2.281587 -0.911238,2.514477 -1.070381,2.428383 -0.09552,-0.05168 -0.113191,0.0067 -0.04601,0.158374 0.130529,0.294601 -0.808788,2.87103 -1.169669,3.208251 -0.138738,0.129641 -0.248927,0.309439 -0.24459,0.39833 0.0041,0.08889 0.102719,0.01393 0.217952,-0.16557 l 0.210684,-0.326345 -0.08718,0.323945 c -0.119241,0.445179 -1.201004,3.447972 -1.755716,4.875966 -0.250133,0.643919 -0.621241,1.624489 -0.825791,2.178826 -0.204561,0.554334 -0.414007,1.006978 -0.464963,1.005427 -0.05093,-0.0016 -0.218777,-0.08723 -0.372938,-0.189566 -0.154168,-0.102333 -0.500168,-0.18133 -0.770091,-0.177571 l -0.491602,0.0073 0.08235,-0.811061 c 0.184936,-1.829635 0.292873,-1.98256 1.276225,-1.794893 0.400236,0.07638 0.611924,0.06263 0.733767,-0.0504 0.09437,-0.08755 0.410423,-0.854093 0.702287,-1.703707 0.291885,-0.849612 0.562942,-1.492865 0.600576,-1.430156 0.03765,0.06271 0.04295,0.02916 0.01215,-0.07198 -0.03101,-0.101139 0.03586,-0.450485 0.150144,-0.777467 0.114332,-0.326983 0.489146,-1.47138 0.833057,-2.543564 0.343899,-1.072186 0.732177,-2.270356 0.862117,-2.663543 0.129938,-0.39319 0.596449,-1.841375 1.036479,-3.217851 0.589384,-1.84367 0.746669,-2.328074 0.893597,-2.3348 z m 2.838205,0.309548 c 0.09161,-0.0012 0.134626,0.0459 0.09686,0.103176 -0.03774,0.05733 -0.0087,0.188035 0.06538,0.29035 0.108403,0.150138 0.134891,0.136416 0.133193,-0.06719 -0.0027,-0.337283 0.237275,-0.115378 0.370515,0.343141 0.06569,0.226083 0.04525,0.35613 -0.0557,0.357539 -0.08702,0.0012 -0.166023,-0.09875 -0.17436,-0.223162 -0.0085,-0.124413 -0.04131,-0.16339 -0.07507,-0.08638 -0.03376,0.077 0.03666,0.336286 0.157409,0.578301 0.120791,0.242009 0.223988,0.353949 0.227639,0.247158 0.0053,-0.152607 0.03875,-0.144747 0.157408,0.03359 0.08303,0.12481 0.110478,0.348619 0.06054,0.499114 -0.05598,0.168815 -0.03642,0.242538 0.05087,0.191967 0.161507,-0.09358 0.357597,0.451681 0.256696,0.712678 -0.03675,0.09511 0.05892,0.519463 0.213109,0.943038 0.180006,0.494627 0.29887,0.678713 0.331769,0.513513 0.02819,-0.141468 0.06194,0.09153 0.07507,0.51831 0.0229,0.746268 0.01783,0.761853 -0.167094,0.391134 -0.241366,-0.483808 -0.260702,-0.248342 -0.02665,0.331142 l 0.17436,0.434326 0.164675,-0.451123 0.162252,-0.451123 0.171939,0.535109 c 0.09469,0.293494 0.131117,0.636327 0.07991,0.763069 -0.06263,0.15502 -0.04069,0.199639 0.06782,0.136777 0.100584,-0.05828 0.19747,0.04202 0.259118,0.266355 0.08935,0.325189 0.2637,0.840049 0.886338,2.613152 0.216375,0.616238 0.160581,1.592133 -0.06299,1.096613 -0.09313,-0.20653 -0.115806,-0.211894 -0.121138,-0.03359 -0.0098,0.347103 0.271415,0.404705 0.397152,0.08159 0.110478,-0.283799 0.119402,-0.280196 0.222797,0.08638 0.05877,0.208569 0.140965,0.494169 0.184051,0.63589 0.06571,0.216418 0.05219,0.228195 -0.08964,0.0672 -0.143234,-0.162622 -0.155571,-0.156804 -0.07984,0.0432 0.04886,0.129671 0.08964,0.263597 0.08964,0.297549 0.001,0.03395 0.05244,0.03347 0.113818,-0.0025 0.104149,-0.06035 1.89418,5.181577 2.060848,6.034966 0.04153,0.212901 0.184484,0.901893 0.31724,1.530938 0.132781,0.629045 0.219487,1.163717 0.193734,1.187797 -0.0258,0.02408 -0.341431,-0.809112 -0.702291,-1.850084 -1.231305,-3.552058 -2.558628,-7.217775 -4.504316,-12.446669 -1.218815,-3.275482 -1.647928,-4.499015 -1.651584,-4.717591 -0.0022,-0.124737 -0.06841,-0.261866 -0.147721,-0.304749 -0.07922,-0.04288 -0.144754,-0.222876 -0.147722,-0.400731 -0.0032,-0.190956 0.05437,-0.290237 0.142878,-0.242359 0.09719,0.05257 0.116972,-0.03608 0.05328,-0.251957 -0.06362,-0.215604 -0.04011,-0.334444 0.06782,-0.335942 z m -1.290754,0.03359 c 0.04961,0.0012 0.09215,0.01242 0.116239,0.03359 0.04819,0.04234 -0.03344,0.07549 -0.184047,0.07198 -0.166398,-0.0042 -0.202752,-0.03389 -0.08961,-0.07678 0.05118,-0.01939 0.10781,-0.02992 0.157408,-0.02879 z m -1.431211,0.08879 c -0.05832,-0.02652 -0.435687,0.946207 -0.578782,1.509341 -0.04994,0.196381 -0.063,0.355663 -0.02907,0.355139 0.08535,-0.0012 0.631456,-1.63958 0.615107,-1.845284 -10e-4,-0.01106 -0.0033,-0.01747 -0.0073,-0.01921 z m 2.867264,0.902245 c -0.01327,0.0023 -0.03137,0.013 -0.05087,0.03119 -0.03899,0.03645 0.0021,0.264758 0.09203,0.506315 0.08989,0.241557 0.188984,0.511379 0.220372,0.599896 0.03136,0.08851 0.09037,0.161297 0.128349,0.160772 0.03799,-5.14e-4 -0.02881,-0.277939 -0.147721,-0.614294 -0.118881,-0.33635 -0.216584,-0.63506 -0.217951,-0.664686 -10e-4,-0.0148 -0.01094,-0.02139 -0.02421,-0.01921 z m 0.67807,1.98446 c -0.02165,-0.0023 -0.03609,0.04496 -0.03875,0.139178 -0.0038,0.136442 0.03079,0.214012 0.07748,0.170369 0.0467,-0.04365 0.04931,-0.156758 0.0073,-0.249557 -0.01776,-0.03848 -0.03299,-0.05839 -0.04601,-0.06 z m -8.449229,0.09358 c 0.02347,-0.0064 0.04331,0.04688 0.07748,0.158372 0.06072,0.198003 0.09999,0.210266 0.205842,0.06238 0.0879,-0.122761 0.108677,-0.0344 0.06297,0.271153 -0.289349,1.932921 -0.633138,4.980218 -0.624792,5.528654 0.0057,0.366779 -0.03784,0.599709 -0.09687,0.518311 -0.05948,-0.0819 -0.116674,0.05399 -0.128348,0.304748 -0.06395,1.372463 -0.568744,4.168797 -0.632058,3.503399 l -0.04359,-0.453523 -0.08718,0.549507 c -0.134071,0.825028 -0.334531,0.857131 -0.239745,0.03839 0.118398,-1.022853 0.506003,-3.42583 0.56425,-3.498601 0.02713,-0.0339 0.111653,0.02356 0.18647,0.127178 0.102791,0.142407 0.13374,0.09944 0.130771,-0.175171 -0.0024,-0.209706 -0.06373,-0.328032 -0.145302,-0.280751 -0.193825,0.112318 -0.189893,0.05189 0.174362,-2.86511 0.176947,-1.417024 0.287772,-2.767224 0.244589,-2.999486 -0.04314,-0.232263 -0.02679,-0.392999 0.03875,-0.357538 0.06554,0.03545 0.16415,-0.0655 0.21795,-0.225562 0.04463,-0.132869 0.07098,-0.199996 0.09444,-0.206365 z m 4.402607,0.04799 c -0.0076,-0.0065 -0.06498,0.03314 -0.176783,0.115181 -0.135728,0.09955 -0.247011,0.203498 -0.247011,0.23036 0.0019,0.10646 0.117456,0.03568 0.300288,-0.182369 0.08704,-0.103816 0.131008,-0.156595 0.123506,-0.163172 z m -4.310583,0.383934 -0.104127,0.388734 c -0.05634,0.214267 -0.09705,0.651684 -0.09203,0.971833 l 0.0096,0.5831 0.108974,-0.52071 c 0.06013,-0.28548 0.10105,-0.722903 0.09203,-0.971834 z m 3.337069,0.99343 c -0.007,3.09e-4 -0.01584,0.0021 -0.02421,0.0073 -0.06653,0.03854 -0.118645,0.183461 -0.11624,0.321545 0.0059,0.350511 0.100315,0.310767 0.174361,-0.07198 0.02987,-0.154194 0.01528,-0.258619 -0.0339,-0.256757 z m 0.196156,0.23036 c -0.02165,-0.0023 -0.03608,0.04495 -0.03875,0.139177 -0.0038,0.136442 0.0308,0.211614 0.07748,0.167971 0.0467,-0.04365 0.04931,-0.154353 0.0073,-0.247158 -0.01774,-0.03848 -0.033,-0.05839 -0.046,-0.06 z m -3.818985,0.895048 c -0.02363,-0.01192 -0.03947,0.09161 -0.03632,0.278351 0.0041,0.249005 0.03648,0.350561 0.07023,0.225562 0.03384,-0.125001 0.02786,-0.32952 -0.0096,-0.453522 -0.0094,-0.031 -0.01643,-0.04643 -0.02421,-0.0504 z m -0.101713,0.957435 c -0.01526,-0.0081 -0.04144,0.07198 -0.09444,0.230361 -0.05981,0.178733 -0.102439,0.613745 -0.09444,0.969434 l 0.01452,0.64789 0.104127,-0.583101 c 0.05739,-0.321018 0.100035,-0.758431 0.09444,-0.971834 -0.0051,-0.189108 -0.009,-0.284673 -0.02421,-0.29275 z m 10.512497,1.28858 c -0.03492,0.0058 -0.01053,0.09178 0.06782,0.268754 0.04951,0.111875 0.147831,0.202497 0.217949,0.201566 0.186941,-0.0026 0.154381,-0.124217 -0.09203,-0.340742 -0.103226,-0.09072 -0.166579,-0.134057 -0.193735,-0.129578 z m -10.769196,1.012627 c -0.03011,4.14e-4 -0.08416,0.147964 -0.118658,0.326344 -0.0345,0.17838 -0.007,0.322477 0.06054,0.321545 0.06761,-9.53e-4 0.121634,-0.146085 0.118658,-0.323945 -0.003,-0.177856 -0.03042,-0.324358 -0.06054,-0.323944 z m 11.381878,0.681482 c -0.04934,0.01045 -0.02628,0.144301 0.05815,0.41273 0.05431,0.172926 0.163331,0.253297 0.28576,0.208765 0.250446,-0.09111 0.253819,-0.0791 -0.09201,-0.429527 -0.131938,-0.133652 -0.213448,-0.200075 -0.251861,-0.191968 z m -11.672479,1.1782 c -0.02165,-0.0027 -0.03609,0.04494 -0.03875,0.139176 -0.0038,0.136442 0.0308,0.214014 0.07748,0.170371 0.04671,-0.04364 0.04931,-0.156757 0.0073,-0.249558 -0.01776,-0.03845 -0.03298,-0.0584 -0.04601,-0.06 z m -0.07264,0.475118 c -0.06272,8.32e-4 -0.110786,0.204521 -0.106554,0.453522 0.0041,0.248999 0.03227,0.451537 0.06297,0.451123 0.03069,-4.06e-4 0.07872,-0.204074 0.106553,-0.453522 0.02787,-0.249448 -7.05e-4,-0.451952 -0.06297,-0.451123 z m 0.123507,2.042051 c 0.01094,-0.0055 0.0244,0.01299 0.03875,0.06 0.03832,0.125351 0.03964,0.300615 0.0025,0.388733 -0.03765,0.08812 -0.06907,-0.01448 -0.07023,-0.227961 0,-0.133417 0.01074,-0.211481 0.02907,-0.220762 z m -0.05328,1.319772 c -0.07008,9.54e-4 -0.125324,0.09006 -0.123506,0.196768 0.0019,0.106715 0.09781,0.191171 0.213107,0.189568 0.127834,-0.0018 0.175559,-0.07688 0.123507,-0.194368 -0.04703,-0.106087 -0.142998,-0.192899 -0.213108,-0.191968 z m -0.01452,0.559106 c -0.04131,-10e-4 -0.02798,0.01516 0.04358,0.04559 0.095,0.04039 0.05662,0.136604 -0.0993,0.247158 -0.240228,0.170399 -0.235727,0.180176 0.0557,0.179969 0.210293,-1.05e-4 0.29555,-0.06923 0.268806,-0.218363 -0.02158,-0.120376 -0.117171,-0.232147 -0.210687,-0.247157 -0.02621,-0.0042 -0.04434,-0.007 -0.05812,-0.0073 z m -0.06538,0.609495 c -0.207703,0.0046 -0.213056,0.02164 -0.02663,0.127179 0.118942,0.06732 0.148021,0.124911 0.06297,0.127178 -0.08503,0.0022 -0.157666,0.07659 -0.159831,0.165571 -0.0024,0.08897 -0.04683,0.263435 -0.101713,0.388735 -0.07416,0.169362 -0.03233,0.227383 0.164673,0.223161 0.223351,-0.0048 0.230654,-0.02643 0.04844,-0.129578 -0.179372,-0.101534 -0.168985,-0.123006 0.06782,-0.129577 0.236761,-0.0066 0.249572,-0.02805 0.07023,-0.129579 -0.11893,-0.06732 -0.149194,-0.125015 -0.06782,-0.127179 0.08138,-0.0022 0.155311,-0.121507 0.164675,-0.263954 0.01094,-0.165065 -0.06925,-0.255382 -0.222795,-0.251957 z m -0.297864,1.569331 c 0.04961,0.0012 0.09215,0.01243 0.116239,0.03359 0.04811,0.04233 -0.03589,0.0755 -0.186469,0.07198 -0.166397,-0.0038 -0.20036,-0.03391 -0.08718,-0.07678 0.05118,-0.0194 0.107799,-0.02997 0.15741,-0.02879 z m -0.741035,0.179969 c 0.03559,-0.0063 0.02655,0.110832 -0.0096,0.386336 -0.072,0.545357 0.140099,0.49438 0.239746,-0.0576 0.04887,-0.270808 0.06257,-0.253953 0.08477,0.09839 0.0146,0.232032 0.102915,0.52912 0.196155,0.659887 0.132586,0.185968 0.122007,0.346365 -0.05087,0.741474 -0.121523,0.277829 -0.226889,0.429491 -0.232479,0.335942 -0.0056,-0.09355 0.0542,-0.283588 0.133191,-0.422328 0.08411,-0.147858 0.0881,-0.250644 0.0096,-0.249557 -0.176168,0.0025 -0.434095,0.723994 -0.426217,1.190196 0.0033,0.202814 -0.06615,0.368305 -0.154986,0.369537 -0.220505,0.0031 -0.135028,-2.569472 0.09687,-2.915501 0.05624,-0.08393 0.09248,-0.132992 0.113818,-0.136777 z m 16.842765,3.548993 c -0.04687,0.0043 -0.10576,0.03331 -0.184049,0.07918 -0.381036,0.223064 -0.33739,0.472304 0.21553,1.226189 0.151193,0.20616 0.383822,0.07783 0.377785,-0.208764 -0.0025,-0.120291 -0.07403,-0.433892 -0.159835,-0.69828 -0.09721,-0.299227 -0.146408,-0.407886 -0.249431,-0.398332 z M -26.541476,-14 c -0.02987,0.0014 -0.05827,0.0041 -0.08718,0.0073 0.0068,0.01317 0.01258,0.02762 0.01938,0.04079 0.01908,-0.0043 0.03845,-0.0073 0.05813,-0.01204 0.0042,-0.0113 0.0073,-0.02368 0.0096,-0.036 z"
     inkscape:connector-curvature="0" /></svg>