<?xml version="1.0" encoding="UTF-8" standalone="no"?>
<!-- Created with Inkscape (http://www.inkscape.org/) -->

<svg
   xmlns:dc="http://purl.org/dc/elements/1.1/"
   xmlns:cc="http://creativecommons.org/ns#"
   xmlns:rdf="http://www.w3.org/1999/02/22-rdf-syntax-ns#"
   xmlns:svg="http://www.w3.org/2000/svg"
   xmlns="http://www.w3.org/2000/svg"
   xmlns:sodipodi="http://sodipodi.sourceforge.net/DTD/sodipodi-0.dtd"
   xmlns:inkscape="http://www.inkscape.org/namespaces/inkscape"
   width="50"
   height="50"
   viewBox="0 0 13.229167 13.229168"
   version="1.1"
   id="svg8"
   sodipodi:docname="orange_button.svg"
   inkscape:version="0.92.2 (5c3e80d, 2017-08-06)"
   inkscape:export-filename="E:\project\www\grapes\img\yellow_button.png"
   inkscape:export-xdpi="96"
   inkscape:export-ydpi="96">
  <sodipodi:namedview
     id="base"
     pagecolor="#ffffff"
     bordercolor="#666666"
     borderopacity="1.0"
     inkscape:pageopacity="0.0"
     inkscape:pageshadow="2"
     inkscape:zoom="1.933937"
     inkscape:cx="25"
     inkscape:cy="14.658402"
     inkscape:document-units="mm"
     inkscape:current-layer="layer1"
     showgrid="false"
     units="px"
     inkscape:window-width="1366"
     inkscape:window-height="716"
     inkscape:window-x="-8"
     inkscape:window-y="-8"
     inkscape:window-maximized="1"
     inkscape:pagecheckerboard="false" />
  <defs
     id="defs2" />
  <metadata
     id="metadata5">
    <rdf:RDF>
      <cc:Work
         rdf:about="">
        <dc:format>image/svg+xml</dc:format>
        <dc:type
           rdf:resource="http://purl.org/dc/dcmitype/StillImage" />
        <dc:title></dc:title>
      </cc:Work>
    </rdf:RDF>
  </metadata>
  <g
     transform="translate(0,-283.77081)"
     id="layer1"
     inkscape:groupmode="layer"
     inkscape:label="Layer 1">
    <path
       d="m 13.153474,291.78576 a 6.6155777,6.6145835 0 0 1 -7.4682276,5.15923 6.6155777,6.6145835 0 0 1 -5.58896412,-7.1518 6.6155777,6.6145835 0 0 1 6.81291062,-5.99779 6.6155777,6.6145835 0 0 1 6.3877921,6.44854"
       sodipodi:open="true"
       sodipodi:end="6.2586634"
       sodipodi:start="0.2101167"
       sodipodi:ry="6.6145835"
       sodipodi:rx="6.6155777"
       sodipodi:cy="290.40613"
       sodipodi:cx="6.6833959"
       sodipodi:type="arc"
       id="path827"
       style="fill:#fdc02c;fill-opacity:1;fill-rule:evenodd;stroke:none;stroke-width:0.31148249;stroke-linejoin:round;stroke-miterlimit:4;stroke-dasharray:none;stroke-opacity:1" />
    <path
       style="opacity:1;fill:#000000;fill-opacity:0.80402012;fill-rule:evenodd;stroke:#000000;stroke-width:0.0023622;stroke-linecap:round;stroke-linejoin:round;stroke-miterlimit:4;stroke-dasharray:none;stroke-opacity:1"
       d=""
       id="path4797"
       inkscape:connector-curvature="0"
       transform="matrix(0.26458333,0,0,0.26458333,0,286.41665)" />
    <path
       style="opacity:1;fill:#000000;fill-opacity:0.80402012;fill-rule:evenodd;stroke:#000000;stroke-width:0.0023622;stroke-linecap:round;stroke-linejoin:round;stroke-miterlimit:4;stroke-dasharray:none;stroke-opacity:1"
       d=""
       id="path4801"
       inkscape:connector-curvature="0"
       transform="matrix(0.26458333,0,0,0.26458333,0,286.41665)" />
    <path
       style="opacity:1;fill:#000000;fill-opacity:0.80402012;fill-rule:evenodd;stroke:#000000;stroke-width:0.00041758;stroke-linecap:round;stroke-linejoin:round;stroke-miterlimit:4;stroke-dasharray:none;stroke-opacity:1"
       d=""
       id="path4807"
       inkscape:connector-curvature="0"
       transform="matrix(0.26458333,0,0,0.26458333,0,286.41665)" />
    <path
       style="opacity:1;fill:#000000;fill-opacity:0.80402012;fill-rule:evenodd;stroke:#000000;stroke-width:0.00441942;stroke-linecap:round;stroke-linejoin:round;stroke-miterlimit:4;stroke-dasharray:none;stroke-opacity:1"
       d=""
       id="path5329"
       inkscape:connector-curvature="0"
       transform="matrix(0.26458333,0,0,0.26458333,0,286.41665)" />
    <path
       style="opacity:1;fill:#000000;fill-opacity:0.80402012;fill-rule:evenodd;stroke:#000000;stroke-width:0.00625;stroke-linecap:round;stroke-linejoin:round;stroke-miterlimit:4;stroke-dasharray:none;stroke-opacity:1"
       d=""
       id="path5343"
       inkscape:connector-curvature="0"
       transform="matrix(0.26458333,0,0,0.26458333,0,286.41665)" />
    <path
       style="opacity:1;fill:#000000;fill-opacity:0.80402012;fill-rule:evenodd;stroke:#000000;stroke-width:0.003125;stroke-linecap:round;stroke-linejoin:round;stroke-miterlimit:4;stroke-dasharray:none;stroke-opacity:1"
       d=""
       id="path5383"
       inkscape:connector-curvature="0"
       transform="matrix(0.26458333,0,0,0.26458333,0,286.41665)" />
    <path
       style="opacity:1;fill:#ffffff;fill-opacity:0.80402012;fill-rule:evenodd;stroke:#5f4100;stroke-width:0.00023622;stroke-linecap:round;stroke-linejoin:round;stroke-miterlimit:4;stroke-dasharray:none;stroke-opacity:1"
       d=""
       id="path5863"
       inkscape:connector-curvature="0"
       transform="matrix(0.26458333,0,0,0.26458333,0,286.41665)" />
    <path
       inkscape:connector-curvature="0"
       id="rect6137"
       style="opacity:1;fill:none;fill-opacity:1;fill-rule:evenodd;stroke:none;stroke-width:0.001;stroke-linecap:round;stroke-linejoin:round;stroke-miterlimit:4;stroke-dasharray:none;stroke-opacity:1"
       d="m -12.518099,307.5337 v 11.41016 h 9.4257813 V 307.5337 Z m 8.7167806,6.11797 c 0.086554,0.0657 0.225222,0.0942 0.2594157,0.19741 0.031251,0.0943 -0.061499,0.18906 -0.1012857,0.28008 -0.053073,0.12141 -0.114645,0.23899 -0.1767334,0.35605 -0.073793,0.13913 -0.1560743,0.27386 -0.2309937,0.41238 -0.00495,0.009 -0.020574,0.0398 -0.026872,0.0517 0.00929,0.0174 0.018479,0.0348 0.027905,0.0522 0.048262,0.089 0.057588,0.0981 0.078031,0.13488 0.024421,-0.0252 0.05109,-0.0521 0.073897,-0.0754 0.05708,-0.0584 0.1135735,-0.11672 0.1700155,-0.1757 0.026249,-0.0274 0.043404,-0.0677 0.078031,-0.0832 0.058913,-0.0265 0.1267891,-0.0252 0.1901693,-0.0377 0.012716,0.0879 0.040086,0.17544 0.046509,0.26355 0.00151,5.8e-4 0.00315,-2e-4 0.00465,5.3e-4 0.013047,0.006 0.00701,0.0161 -0.00414,0.0269 2.141e-4,0.0129 0.00153,0.0258 5.292e-4,0.0387 -0.00146,0.0184 -0.1786654,0.36377 -0.1839682,0.37518 -0.014655,0.0315 -0.026735,0.0643 -0.039791,0.0966 0.031612,0.0724 0.056621,0.14683 0.053227,0.22738 -0.00116,0.0277 0.00483,0.0577 -0.00723,0.0827 -0.027873,0.0577 -0.072667,0.10539 -0.1090375,0.15813 -0.054193,-0.0139 -0.108554,-0.0274 -0.1627806,-0.0413 -0.05121,0.10794 -0.1050124,0.1997 -0.147278,0.0548 -0.038218,-0.13104 -0.029219,-0.0632 -0.025321,-0.20412 0.00471,-0.0313 0.010652,-0.0581 0.015502,-0.0873 -0.01284,-0.0331 -0.026775,-0.0648 -0.041341,-0.0966 -0.028649,0.0222 -0.056578,0.0453 -0.086816,0.0656 -0.056641,0.0381 -0.1215493,0.0617 -0.1824178,0.0925 -0.031303,0.0144 -0.063437,0.0276 -0.094051,0.0434 -0.030943,0.0159 -0.05613,0.0458 -0.090434,0.0517 -0.012232,0.002 0.015359,-0.0327 0.00362,-0.0367 -0.00148,-5e-4 -0.00315,-5.6e-4 -0.00465,-10e-4 -0.018912,0.10809 -0.042951,0.22165 -0.2232422,-0.0357 -0.035475,-0.007 -0.069582,-0.0166 -0.099219,-0.0372 -0.1026742,-0.0716 0.2986654,-0.33431 0.1286743,-0.35295 0.035435,-0.0689 0.097328,-0.18706 0.1607137,-0.31006 -0.044751,0.0438 -0.088112,0.0888 -0.1353923,0.13023 -0.078378,0.0671 -0.156087,0.13521 -0.2351278,0.20154 -0.1035108,0.0869 -0.1913062,0.17466 -0.319877,0.22066 -0.0073,0.003 0.00875,-0.0235 0.00103,-0.0227 -0.011459,0.001 -0.012195,0.0285 -0.023254,0.0253 -0.1008731,-0.0294 -0.1949958,-0.0786 -0.2924886,-0.11782 0.011925,-0.15171 0.044568,-0.28537 0.086816,-0.43357 0.089225,-0.31297 0.1992471,-0.61936 0.3607014,-0.9033 0.023802,-0.0362 0.1835438,-0.29349 0.2418458,-0.33228 0.1999412,-0.13302 0.3083918,-0.0221 0.398942,0.14211 0.086741,0.15732 -0.077121,0.14939 -0.2036051,0.13849 -0.00295,0.0152 -0.02037,0.0304 -0.034623,0.0455 0.042286,0.0423 0.056168,0.0642 -0.01602,0.0196 -0.036359,0.0561 -0.073022,0.11199 -0.1095539,0.16795 -0.141778,0.25562 -0.2394397,0.53053 -0.3188436,0.8108 0.00701,-0.006 0.00782,-0.007 0.016021,-0.0145 0.077362,-0.0667 0.1554834,-0.13251 0.2330606,-0.19895 0.2987654,-0.26159 0.5390726,-0.57838 0.7565429,-0.90847 0.060961,-0.0925 0.1649476,-0.28964 0.2516643,-0.38602 0.025448,-0.0283 0.059319,-0.0479 0.088883,-0.0718 z m -1.3461709,1.57975 c -0.084718,0.0748 -0.095972,0.095 -0.1922365,0.14521 -0.046493,0.0242 -0.09602,0.0422 -0.1415933,0.0682 -0.010065,0.006 -0.033184,0.0198 -0.023254,0.0258 0.088567,0.0532 0.1877616,0.0861 0.2816368,0.1292 0.00797,-0.12888 0.036504,-0.23177 0.072864,-0.36071 7.408e-4,-0.003 0.00185,-0.005 0.00259,-0.008 z m 0.4283974,-0.97875 c 0.00191,-0.003 0.00379,-0.006 0.00568,-0.009 0.00233,-0.004 0.00692,-0.007 0.010335,-0.0109 -0.02372,-0.0237 -0.025958,-0.0275 -0.050126,-0.0501 -0.043433,3.1e-4 -0.058853,0.0112 0.02377,0.0646 0.00788,0.005 0.00396,10e-4 0.010335,0.005 z m -0.034106,-0.0698 c 0.021783,-1.6e-4 0.050004,0.002 0.08475,0.005 8.732e-4,-0.004 0.00175,-0.009 -0.00103,-0.0134 -0.016325,-0.0256 -0.063107,0.004 -0.091984,-0.006 -0.022265,-0.008 -0.033809,-0.0332 -0.053744,-0.046 -0.012576,-0.008 0.032345,0.0332 0.062012,0.061 z m 0.2051556,0.95601 c 0.042312,-0.0414 0.082122,-0.085 0.1224732,-0.12816 -7.408e-4,-0.005 -0.00132,-0.0102 -0.00206,-0.015 -0.00736,-0.0145 -0.013645,-0.0347 -0.020672,-0.0496 -0.035601,0.0691 -0.060345,0.11632 -0.099735,0.19275 z m 0.120406,-0.14314 c 0.00164,0.003 0.00402,0.008 0.00568,0.0109 0.081249,-0.0871 0.1604137,-0.17604 0.2346111,-0.26923 -0.045314,-0.15196 0.00868,-0.0518 -0.016021,-0.0972 -0.1386348,0.13407 -0.1466612,0.16806 -0.1674315,0.15658 -0.016952,0.0322 -0.043666,0.0836 -0.066663,0.12816 0.00336,0.0214 0.00629,0.0482 0.00982,0.0708 z m -0.3105753,0.84336 c 0.072805,0.0143 0.1526754,0.0127 0.2232422,0.0356 0.00473,-0.027 0.00914,-0.056 0.01602,-0.0749 0.024633,-0.0679 0.056232,-0.13287 0.084232,-0.19947 0.012171,-0.0237 0.036305,-0.0699 0.057878,-0.11162 -0.0018,-0.009 -0.00434,-0.0161 -0.00568,-0.0253 -0.035288,0.0184 -0.070884,0.0362 -0.1064536,0.0543 -0.029129,0.0137 -0.3673848,0.17201 -0.3400308,0.21601 0.027115,0.0436 0.04873,0.0739 0.070797,0.10542 z m 1.3255003,-0.78394 c -1.508e-4,-0.009 1.482e-4,-0.0183 -5.291e-4,-0.0274 -0.051835,-0.02 -0.1099032,0.0308 -0.1648479,0.0455 -0.046629,-0.0348 -0.084126,-0.12058 -0.1400429,-0.10439 -0.059724,0.0173 -0.053134,0.11215 -0.080615,0.16795 -0.024495,0.0497 -0.053199,0.1042 -0.080615,0.15917 0.01402,0.0224 0.023133,0.0435 0.047026,0.0817 0.02127,0.002 0.042882,0.0106 0.064596,0.0222 0.094213,-0.0935 0.1860923,-0.18976 0.2775025,-0.28526 0.017454,-0.0182 0.057998,-0.0405 0.077514,-0.0594 z m -0.4196125,0.32247 c -0.037905,-0.004 -0.070232,0.0113 -0.097668,0.0341 -0.011848,0.028 -0.026379,0.0566 -0.03514,0.0837 -0.0083,0.0257 -0.012499,0.0484 -0.017571,0.0718 0.00119,0.009 0.00302,0.0174 0.00517,0.0264 0.060988,-0.051 0.1181208,-0.10624 0.175183,-0.16174 -0.00542,-0.0115 -0.00334,-0.008 -0.00982,-0.0217 -0.012801,-0.0206 -0.010115,-0.0165 -0.020153,-0.0326 z m 0.017571,-1.52343 c -0.019164,-0.003 -0.038598,-0.002 -0.057878,0.002 -0.053295,0.0122 -0.051273,0.0969 -0.075964,0.14573 -0.056518,0.11169 -0.1086007,0.2254 -0.1674318,0.33589 -0.036204,0.068 -0.074837,0.13469 -0.1131713,0.20154 0.00789,0.008 0.016515,0.0159 0.02377,0.0227 0.020193,0.0191 0.038287,0.0711 0.053743,0.12609 0.098098,-0.1262 0.1922825,-0.25567 0.280603,-0.38912 0.05703,-0.0862 0.1058828,-0.17747 0.1622639,-0.26407 0.049709,-0.0763 0.057286,-0.11104 0.065629,-0.12041 -0.057229,-0.0206 -0.114074,-0.053 -0.1715658,-0.0605 z m -0.280603,1.12913 c -0.04384,0.0833 -0.1025084,0.19707 -0.1658814,0.3204 0.0088,0.016 0.028237,0.0534 0.035657,0.0661 0.055768,-0.0449 0.110395,-0.0898 0.1632974,-0.14211 -0.0108,-0.0855 -0.020981,-0.16395 -0.033073,-0.24443 z m 0.4175455,0.72554 c -0.00428,0.0228 -0.00873,0.0402 -0.012404,0.0641 0.015026,0.005 0.029788,0.011 0.044958,0.0155 -0.00911,-0.0226 -0.018283,-0.0456 -0.027388,-0.0682 -0.00254,-0.006 -0.00285,-0.006 -0.00517,-0.0114 z m 0.032556,0.0796 c 3.44e-4,8.5e-4 6.879e-4,0.002 0.00103,0.003 -1.532e-4,-8.5e-4 -5.32e-5,-10e-4 -5.292e-4,-0.003 z m 5.292e-4,0 c 0.00246,7.4e-4 0.00478,0.002 0.00723,0.003 0.00489,10e-4 -0.00369,-0.0124 -0.00878,-0.0124 -0.00333,-8e-5 -1.632e-4,0.006 0.00156,0.01 z" />
    <path
       id="rect6137-1"
       transform="matrix(0.26458333,0,0,0.26458333,0,283.77081)"
       style="opacity:1;fill:none;fill-opacity:1;fill-rule:evenodd;stroke:none;stroke-width:0.00377953;stroke-linecap:round;stroke-linejoin:round;stroke-miterlimit:4;stroke-dasharray:none;stroke-opacity:1"
       d="m 44.8125,44.0625 v 21.408203 c 0.333528,-0.02707 0.673623,-0.0445 1.027344,-0.04297 1.800722,0.0078 3.857476,0.398561 6.128906,1.279297 0.568135,0.220347 1.145789,0.417429 1.71875,0.625 1.514869,0.536202 3.029526,1.072163 4.548828,1.595703 1.805329,0.618067 3.63039,1.176933 5.455078,1.734375 1.718669,0.514961 3.438687,1.022625 5.16211,1.521485 0.860939,0.248923 1.726045,0.483462 2.589843,0.722656 0.0082,-0.02923 0.01307,-0.05642 0.02148,-0.08594 0.337209,-1.182878 0.753061,-2.340903 1.363281,-3.414062 0.08995,-0.136819 0.693708,-1.109252 0.914063,-1.255859 0.755682,-0.502753 1.165576,-0.08353 1.507812,0.537109 0.327836,0.594595 -0.291478,0.564634 -0.769531,0.523438 0.0031,-0.01481 0.0059,-0.03284 -0.0039,-0.04883 -0.06172,-0.09676 -0.238541,0.01436 -0.347656,-0.02344 -0.08417,-0.03024 -0.127799,-0.12545 -0.203125,-0.173828 -0.04715,-0.02998 0.120285,0.1235 0.232422,0.228515 -0.162319,0.0016 -0.218951,0.04329 0.0918,0.244141 0.02986,0.0189 0.0151,0.0025 0.03906,0.01758 l 0.02148,-0.03125 c 0.0085,-0.01474 0.02621,-0.0268 0.03906,-0.04102 0.159837,0.159875 0.212298,0.242786 -0.06055,0.07422 -0.137423,0.212032 -0.275981,0.423264 -0.414062,0.634766 -0.535552,0.965579 -0.905064,2.003831 -1.205078,3.0625 v 0.002 c 0.02646,-0.02268 0.02948,-0.02634 0.06055,-0.05469 0.292384,-0.252094 0.587655,-0.500841 0.880859,-0.751953 1.129194,-0.988686 2.037441,-2.186009 2.859375,-3.433593 0.2304,-0.349607 0.623426,-1.094714 0.951172,-1.458985 0.09619,-0.10696 0.224215,-0.181153 0.335937,-0.271484 0.327119,0.248315 0.851232,0.356009 0.980469,0.746094 0.11811,0.356409 -0.23244,0.714581 -0.382812,1.058593 -0.20058,0.458873 -0.433306,0.903272 -0.667969,1.345704 -0.278891,0.525845 -0.589888,1.035053 -0.873047,1.558593 -0.01852,0.03402 -0.07775,0.150336 -0.101562,0.195313 0.03515,0.06576 0.06983,0.131502 0.105468,0.197265 0.1824,0.336378 0.217669,0.370755 0.294922,0.509766 0.0923,-0.09524 0.193086,-0.197093 0.279297,-0.285156 0.215736,-0.220725 0.429254,-0.441146 0.642578,-0.664063 0.09921,-0.103559 0.164037,-0.25587 0.294922,-0.314453 0.222652,-0.100157 0.479204,-0.09533 0.71875,-0.142578 0.04808,0.33222 0.151517,0.66308 0.175781,0.996094 0.0057,0.0022 0.01191,-8.06e-4 0.01758,0.002 0.04932,0.02268 0.02633,0.06074 -0.01563,0.101562 8.09e-4,0.04876 0.0056,0.09773 0.002,0.146485 -0.0057,0.06954 -0.67527,1.374844 -0.695313,1.417969 -0.05537,0.119055 -0.10103,0.243155 -0.150391,0.365234 0.04295,0.09838 0.07475,0.199705 0.107422,0.300781 0.649434,0.149588 1.299018,0.298304 1.947266,0.451172 V 44.0625 Z m 34.414062,28.427734 c -5.7e-4,-0.03401 6.06e-4,-0.06912 -0.002,-0.103515 -0.19593,-0.07559 -0.41538,0.116316 -0.623047,0.171875 -0.176239,-0.131528 -0.317972,-0.455722 -0.529296,-0.394532 -0.225714,0.06539 -0.200826,0.423868 -0.304688,0.634766 -0.0926,0.187843 -0.201053,0.393802 -0.304687,0.601563 0.05299,0.08466 0.0874,0.164215 0.177734,0.308593 0.08039,0.0076 0.162049,0.04014 0.244141,0.08398 0.356069,-0.353386 0.703341,-0.71718 1.048828,-1.078125 0.06595,-0.06879 0.21923,-0.153177 0.292968,-0.22461 z m -1.585937,1.21875 c -0.143244,-0.01512 -0.26543,0.04273 -0.369141,0.128907 -0.04479,0.105826 -0.0997,0.213981 -0.132812,0.316406 -0.02754,0.08528 -0.04223,0.161018 -0.05859,0.238281 0.04165,0.0097 0.08334,0.01959 0.125,0.0293 0.187484,-0.1641 0.369882,-0.333767 0.548828,-0.507813 -0.02041,-0.04346 -0.01254,-0.03025 -0.03711,-0.08203 -0.04838,-0.07786 -0.03826,-0.0622 -0.07617,-0.123047 z M 72.669922,73.15625 c -0.0362,0.03196 -0.04816,0.04317 -0.07813,0.07031 0.01829,0.005 0.0364,0.01063 0.05469,0.01563 0.0056,-0.01983 0.008,-0.03649 0.01367,-0.05664 0.0026,-0.01069 0.0071,-0.01899 0.0098,-0.0293 z m 5.037109,-5.205078 c -0.07242,-0.01134 -0.14588,-0.0073 -0.21875,0.0078 -0.201449,0.04611 -0.193793,0.366227 -0.287109,0.550782 -0.213619,0.422135 -0.410459,0.851931 -0.632813,1.269531 -0.136819,0.257008 -0.282861,0.509057 -0.427734,0.761719 0.02986,0.03024 0.06244,0.06024 0.08984,0.08594 0.07631,0.07219 0.144731,0.268726 0.203125,0.476563 0.370771,-0.476977 0.726735,-0.966326 1.060547,-1.470704 0.215546,-0.325795 0.400187,-0.670739 0.613281,-0.998046 0.18788,-0.288378 0.216525,-0.419664 0.248047,-0.455078 -0.216303,-0.07786 -0.431149,-0.20017 -0.648438,-0.228516 z m -3.546875,1.242187 c 0.08182,-6.01e-4 0.188117,0.0083 0.31836,0.01953 -0.01245,0.05631 -0.07595,0.112026 -0.128907,0.167968 -0.08965,-0.08957 -0.0981,-0.102082 -0.189453,-0.1875 z m 2.078125,1.728516 c -0.523975,0.506721 -0.554311,0.635186 -0.632812,0.591797 -0.06406,0.121701 -0.165062,0.315959 -0.251953,0.484375 0.01285,0.08088 0.02388,0.182161 0.03711,0.267578 0.006,0.01134 0.01506,0.03006 0.02148,0.04102 0.307087,-0.329197 0.60629,-0.665364 0.886719,-1.017579 -0.17125,-0.574337 0.03288,-0.195596 -0.06055,-0.367187 z m -0.847656,1.34375 c -0.02797,-0.0548 -0.05155,-0.131185 -0.07813,-0.1875 -0.134551,0.261165 -0.228078,0.439646 -0.376953,0.728516 0.159912,-0.156473 0.310375,-0.321251 0.462891,-0.484375 -0.0028,-0.0189 -0.0048,-0.0385 -0.0078,-0.05664 z m -0.455078,0.541016 c -0.169134,0.165543 -0.333011,0.335601 -0.511719,0.492187 -0.12375,0.105941 -0.247678,0.211855 -0.371094,0.31836 0.135827,0.0361 0.272266,0.06983 0.408204,0.105468 0.135297,-0.260839 0.287368,-0.552664 0.474609,-0.916015 z m 1.710937,-0.587891 c -0.165694,0.314835 -0.387433,0.744808 -0.626953,1.210938 0.03326,0.06047 0.106722,0.202 0.134766,0.25 0.210784,-0.169701 0.417239,-0.339403 0.617187,-0.53711 -0.04082,-0.323149 -0.07931,-0.619652 -0.125,-0.923828 z M 44.8125,80.753906 V 87.1875 H 64.050781 C 62.395106,86.706692 60.74122,86.220069 59.089844,85.724609 57.087333,85.112817 55.084362,84.497881 53.103516,83.818359 51.505002,83.267304 49.911952,82.703749 48.318359,82.138672 47.584594,81.872215 46.844576,81.618758 46.119141,81.330078 45.661056,81.147809 45.230379,80.952727 44.8125,80.753906 Z" />
    <path
       style="opacity:1;fill:#ffffff;fill-opacity:1;fill-rule:evenodd;stroke:#ffffff;stroke-width:0.23622048;stroke-linecap:round;stroke-linejoin:round;stroke-miterlimit:4;stroke-dasharray:none;stroke-opacity:1"
       d=""
       id="path6371"
       inkscape:connector-curvature="0"
       transform="matrix(0.26458333,0,0,0.26458333,0,285.09373)" />
    <path
       style="opacity:1;fill:#ffffff;fill-opacity:1;fill-rule:evenodd;stroke:#ffffff;stroke-width:0.16703311;stroke-linecap:round;stroke-linejoin:round;stroke-miterlimit:4;stroke-dasharray:none;stroke-opacity:1"
       d=""
       id="path6397"
       inkscape:connector-curvature="0"
       transform="matrix(0.26458333,0,0,0.26458333,0,285.09373)" />
    <path
       style="opacity:1;fill:#ffffff;fill-opacity:1;fill-rule:evenodd;stroke:#ffffff;stroke-width:0.08351655;stroke-linecap:round;stroke-linejoin:round;stroke-miterlimit:4;stroke-dasharray:none;stroke-opacity:1"
       d=""
       id="path6405"
       inkscape:connector-curvature="0"
       transform="matrix(0.26458333,0,0,0.26458333,0,285.09373)" />
    <path
       style="opacity:1;fill:#ffffff;fill-opacity:1;fill-rule:evenodd;stroke:#ffffff;stroke-width:0.05905512;stroke-linecap:round;stroke-linejoin:round;stroke-miterlimit:4;stroke-dasharray:none;stroke-opacity:1"
       d=""
       id="path6413"
       inkscape:connector-curvature="0"
       transform="matrix(0.26458333,0,0,0.26458333,0,285.09373)" />
    <path
       style="opacity:1;fill:#ffffff;fill-opacity:1;fill-rule:evenodd;stroke:#ffffff;stroke-width:0.05905512;stroke-linecap:round;stroke-linejoin:round;stroke-miterlimit:4;stroke-dasharray:none;stroke-opacity:1"
       d=""
       id="path6447"
       inkscape:connector-curvature="0"
       transform="matrix(0.26458333,0,0,0.26458333,0,285.09373)" />
    <path
       style="opacity:1;fill:#ffffff;fill-opacity:1;fill-rule:evenodd;stroke:#ffffff;stroke-width:0.05905512;stroke-linecap:round;stroke-linejoin:round;stroke-miterlimit:4;stroke-dasharray:none;stroke-opacity:1"
       d=""
       id="path6471"
       inkscape:connector-curvature="0"
       transform="matrix(0.26458333,0,0,0.26458333,0,285.09373)" />
    <path
       style="opacity:1;fill:#ffffff;fill-opacity:1;fill-rule:evenodd;stroke:#ffffff;stroke-width:0.11811024;stroke-linecap:round;stroke-linejoin:round;stroke-miterlimit:4;stroke-dasharray:none;stroke-opacity:1"
       d=""
       id="path6483"
       inkscape:connector-curvature="0"
       transform="matrix(0.26458333,0,0,0.26458333,0,285.09373)" />
    <path
       style="opacity:1;fill:#ffffff;fill-opacity:1;fill-rule:evenodd;stroke:#ffffff;stroke-width:0.11811024;stroke-linecap:round;stroke-linejoin:round;stroke-miterlimit:4;stroke-dasharray:none;stroke-opacity:1"
       d=""
       id="path6497"
       inkscape:connector-curvature="0"
       transform="matrix(0.26458333,0,0,0.26458333,0,285.09373)" />
    <path
       style="opacity:1;fill:#ffffff;fill-opacity:1;fill-rule:evenodd;stroke:#ffffff;stroke-width:0.11811024;stroke-linecap:round;stroke-linejoin:round;stroke-miterlimit:4;stroke-dasharray:none;stroke-opacity:1"
       d=""
       id="path6499"
       inkscape:connector-curvature="0"
       transform="matrix(0.26458333,0,0,0.26458333,0,285.09373)" />
    <path
       style="opacity:1;fill:#ffffff;fill-opacity:1;fill-rule:evenodd;stroke:#ffffff;stroke-width:0.05905512;stroke-linecap:round;stroke-linejoin:round;stroke-miterlimit:4;stroke-dasharray:none;stroke-opacity:1"
       d=""
       id="path6501"
       inkscape:connector-curvature="0"
       transform="matrix(0.26458333,0,0,0.26458333,0,285.09373)" />
    <g
       transform="matrix(0.09021693,0,0,0.09021693,-18.068332,280.76354)"
       id="g7204"
       style="fill:none;fill-opacity:1;stroke:#ffffff;stroke-width:3.63953757;stroke-miterlimit:4;stroke-dasharray:none;stroke-opacity:1">
      <path
         inkscape:connector-curvature="0"
         d="m 323.884,88.743 h -99.298 c -2.75,0 -2.959,0.947 -0.465,2.105 l 5.204,2.416 c 3.467,1.52 4.535,7.22 4.535,9.97 v 33.092 c 0,2.75 1.307,4.02 4.057,4.02 h 40.333 c 2.75,0 4.242,-1.353 4.242,-4.103 V 103.7 c 0,-2.75 2.25,-5 5,-5 h 12.811 c 2.75,0 5,2.25 5,5 v 33.001 c 0,2.75 1.994,3.645 4.431,3.645 2.437,0 4.431,-1.02 4.431,-3.77 V 104.22 c 0,-2.75 0.649,-8.019 4.441,-10.161 l 5.837,-3.019 c 2.442,-1.264 2.191,-2.297 -0.559,-2.297 z m -49.16,25.025 c 0,2.75 -2.25,5 -5,5 h -24.212 c -2.75,0 -5,-2.25 -5,-5 V 99.296 c 0,-2.75 2.25,-5 5,-5 h 24.212 c 2.75,0 5,2.25 5,5 z"
         id="path7194"
         style="fill:none;fill-opacity:1;stroke:#ffffff;stroke-width:3.63953757;stroke-miterlimit:4;stroke-dasharray:none;stroke-opacity:1" />
      <path
         inkscape:connector-curvature="0"
         d="m 324.816,84.531 -47.233,-22.99 c -2.419,-1.207 -3.918,-1.201 -6.333,0.012 l -47.058,22.965 c -2.416,1.213 -2.142,2.206 0.608,2.206 h 99.416 c 2.75,10e-4 3.02,-0.987 0.6,-2.193 z"
         id="path7196"
         style="fill:none;fill-opacity:1;stroke:#ffffff;stroke-width:3.63953757;stroke-miterlimit:4;stroke-dasharray:none;stroke-opacity:1" />
      <path
         inkscape:connector-curvature="0"
         d="m 298.554,100.727 h -9.216 c -2.693,0 -4.897,1.786 -4.897,5.46 v 29.274 c 0,2.701 2.204,4.911 4.897,4.911 h 9.216 c 2.694,0 4.897,-2.21 4.897,-4.911 v -29.823 c 0,-3.125 -2.203,-4.911 -4.897,-4.911 z"
         id="path7198"
         style="fill:none;fill-opacity:1;stroke:#ffffff;stroke-width:3.63953757;stroke-miterlimit:4;stroke-dasharray:none;stroke-opacity:1" />
      <path
         inkscape:connector-curvature="0"
         d="M 267.172,96.521 H 263.9 c -2.933,0 -5.333,2.4 -5.333,5.333 v 9.357 c 0,2.933 2.4,5.333 5.333,5.333 h 3.272 c 2.933,0 5.333,-2.4 5.333,-5.333 v -9.357 c 0,-2.934 -2.401,-5.333 -5.333,-5.333 z"
         id="path7200"
         style="fill:none;fill-opacity:1;stroke:#ffffff;stroke-width:3.63953757;stroke-miterlimit:4;stroke-dasharray:none;stroke-opacity:1" />
      <path
         inkscape:connector-curvature="0"
         d="m 251.212,96.521 h -2.762 c -2.933,0 -5.333,2.4 -5.333,5.333 v 9.357 c 0,2.933 2.4,5.333 5.333,5.333 h 2.762 c 2.933,0 5.333,-2.4 5.333,-5.333 v -9.357 c 0,-2.934 -2.399,-5.333 -5.333,-5.333 z"
         id="path7202"
         style="fill:none;fill-opacity:1;stroke:#ffffff;stroke-width:3.63953757;stroke-miterlimit:4;stroke-dasharray:none;stroke-opacity:1" />
    </g>
  </g>
</svg>
