<?xml version="1.0" encoding="UTF-8" standalone="no"?>
<!-- Created with Inkscape (http://www.inkscape.org/) -->

<svg
   xmlns:dc="http://purl.org/dc/elements/1.1/"
   xmlns:cc="http://creativecommons.org/ns#"
   xmlns:rdf="http://www.w3.org/1999/02/22-rdf-syntax-ns#"
   xmlns:svg="http://www.w3.org/2000/svg"
   xmlns="http://www.w3.org/2000/svg"
   xmlns:sodipodi="http://sodipodi.sourceforge.net/DTD/sodipodi-0.dtd"
   xmlns:inkscape="http://www.inkscape.org/namespaces/inkscape"
   width="50"
   height="50"
   viewBox="0 0 13.229167 13.229168"
   version="1.1"
   id="svg8"
   sodipodi:docname="red_button.svg"
   inkscape:version="0.92.2 (5c3e80d, 2017-08-06)"
   inkscape:export-filename="E:\project\www\grapes\img\yellow_button.png"
   inkscape:export-xdpi="96"
   inkscape:export-ydpi="96">
  <sodipodi:namedview
     id="base"
     pagecolor="#ffffff"
     bordercolor="#666666"
     borderopacity="1.0"
     inkscape:pageopacity="0.0"
     inkscape:pageshadow="2"
     inkscape:zoom="2"
     inkscape:cx="48.768161"
     inkscape:cy="-22.233681"
     inkscape:document-units="mm"
     inkscape:current-layer="layer1"
     showgrid="false"
     units="px"
     inkscape:window-width="1366"
     inkscape:window-height="716"
     inkscape:window-x="-8"
     inkscape:window-y="-8"
     inkscape:window-maximized="1"
     inkscape:pagecheckerboard="false" />
  <defs
     id="defs2" />
  <metadata
     id="metadata5">
    <rdf:RDF>
      <cc:Work
         rdf:about="">
        <dc:format>image/svg+xml</dc:format>
        <dc:type
           rdf:resource="http://purl.org/dc/dcmitype/StillImage" />
        <dc:title></dc:title>
      </cc:Work>
    </rdf:RDF>
  </metadata>
  <g
     transform="translate(0,-283.77081)"
     id="layer1"
     inkscape:groupmode="layer"
     inkscape:label="Layer 1">
    <path
       d="m 13.041044,291.81246 a 6.6009021,6.6230764 0 0 1 -7.4516607,5.16586 6.6009021,6.6230764 0 0 1 -5.57656584,-7.16098 6.6009021,6.6230764 0 0 1 6.79779724,-6.0055 6.6009021,6.6230764 0 0 1 6.3736213,6.45683"
       sodipodi:open="true"
       sodipodi:end="6.2586634"
       sodipodi:start="0.2101167"
       sodipodi:ry="6.6230764"
       sodipodi:rx="6.6009021"
       sodipodi:cy="290.43106"
       sodipodi:cx="6.5853186"
       sodipodi:type="arc"
       id="path12"
       style="fill:#e7252e;fill-opacity:1;fill-rule:evenodd;stroke:none;stroke-width:0.13091053;stroke-linejoin:round;stroke-miterlimit:4;stroke-dasharray:none;stroke-opacity:1" />
    <path
       style="opacity:1;fill:#000000;fill-opacity:0.80402012;fill-rule:evenodd;stroke:#000000;stroke-width:0.0023622;stroke-linecap:round;stroke-linejoin:round;stroke-miterlimit:4;stroke-dasharray:none;stroke-opacity:1"
       d=""
       id="path4797"
       inkscape:connector-curvature="0"
       transform="matrix(0.26458333,0,0,0.26458333,0,286.41665)" />
    <path
       style="opacity:1;fill:#000000;fill-opacity:0.80402012;fill-rule:evenodd;stroke:#000000;stroke-width:0.0023622;stroke-linecap:round;stroke-linejoin:round;stroke-miterlimit:4;stroke-dasharray:none;stroke-opacity:1"
       d=""
       id="path4801"
       inkscape:connector-curvature="0"
       transform="matrix(0.26458333,0,0,0.26458333,0,286.41665)" />
    <path
       style="opacity:1;fill:#000000;fill-opacity:0.80402012;fill-rule:evenodd;stroke:#000000;stroke-width:0.00041758;stroke-linecap:round;stroke-linejoin:round;stroke-miterlimit:4;stroke-dasharray:none;stroke-opacity:1"
       d=""
       id="path4807"
       inkscape:connector-curvature="0"
       transform="matrix(0.26458333,0,0,0.26458333,0,286.41665)" />
    <path
       style="opacity:1;fill:#000000;fill-opacity:0.80402012;fill-rule:evenodd;stroke:#000000;stroke-width:0.00441942;stroke-linecap:round;stroke-linejoin:round;stroke-miterlimit:4;stroke-dasharray:none;stroke-opacity:1"
       d=""
       id="path5329"
       inkscape:connector-curvature="0"
       transform="matrix(0.26458333,0,0,0.26458333,0,286.41665)" />
    <path
       style="opacity:1;fill:#000000;fill-opacity:0.80402012;fill-rule:evenodd;stroke:#000000;stroke-width:0.00625;stroke-linecap:round;stroke-linejoin:round;stroke-miterlimit:4;stroke-dasharray:none;stroke-opacity:1"
       d=""
       id="path5343"
       inkscape:connector-curvature="0"
       transform="matrix(0.26458333,0,0,0.26458333,0,286.41665)" />
    <path
       style="opacity:1;fill:#000000;fill-opacity:0.80402012;fill-rule:evenodd;stroke:#000000;stroke-width:0.003125;stroke-linecap:round;stroke-linejoin:round;stroke-miterlimit:4;stroke-dasharray:none;stroke-opacity:1"
       d=""
       id="path5383"
       inkscape:connector-curvature="0"
       transform="matrix(0.26458333,0,0,0.26458333,0,286.41665)" />
    <path
       style="opacity:1;fill:#ffffff;fill-opacity:0.80402012;fill-rule:evenodd;stroke:#5f4100;stroke-width:0.00023622;stroke-linecap:round;stroke-linejoin:round;stroke-miterlimit:4;stroke-dasharray:none;stroke-opacity:1"
       d=""
       id="path5863"
       inkscape:connector-curvature="0"
       transform="matrix(0.26458333,0,0,0.26458333,0,286.41665)" />
    <path
       inkscape:connector-curvature="0"
       id="rect6137-1"
       style="opacity:1;fill:none;fill-opacity:1;fill-rule:evenodd;stroke:none;stroke-width:0.001;stroke-linecap:round;stroke-linejoin:round;stroke-miterlimit:4;stroke-dasharray:none;stroke-opacity:1"
       d="m 11.856641,295.42901 v 11.41016 h 9.425781 v -11.41016 z m 8.71678,6.11797 c 0.08655,0.0657 0.225222,0.0942 0.259416,0.19741 0.03125,0.0943 -0.0615,0.18906 -0.101286,0.28008 -0.05307,0.12141 -0.114645,0.23899 -0.176733,0.35605 -0.07379,0.13913 -0.156075,0.27386 -0.230994,0.41238 -0.0049,0.009 -0.02057,0.0398 -0.02687,0.0517 0.0093,0.0174 0.01848,0.0348 0.02791,0.0522 0.04826,0.089 0.05759,0.0981 0.07803,0.13488 0.02442,-0.0252 0.05109,-0.0521 0.0739,-0.0754 0.05708,-0.0584 0.113573,-0.11672 0.170015,-0.1757 0.02625,-0.0274 0.0434,-0.0677 0.07803,-0.0832 0.05891,-0.0265 0.12679,-0.0252 0.19017,-0.0377 0.01272,0.0879 0.04009,0.17544 0.04651,0.26355 0.0015,5.8e-4 0.0031,-2e-4 0.0046,5.3e-4 0.01305,0.006 0.007,0.0161 -0.0041,0.0269 2.14e-4,0.0129 0.0015,0.0258 5.29e-4,0.0387 -0.0015,0.0184 -0.178665,0.36377 -0.183968,0.37518 -0.01465,0.0315 -0.02673,0.0643 -0.03979,0.0966 0.03161,0.0724 0.05662,0.14683 0.05323,0.22738 -0.0012,0.0277 0.0048,0.0577 -0.0072,0.0827 -0.02787,0.0577 -0.07267,0.10539 -0.109038,0.15813 -0.05419,-0.0139 -0.108554,-0.0274 -0.16278,-0.0413 -0.05121,0.10794 -0.105013,0.1997 -0.147278,0.0548 -0.03822,-0.13104 -0.02922,-0.0632 -0.02532,-0.20412 0.0047,-0.0313 0.01065,-0.0581 0.0155,-0.0873 -0.01284,-0.0331 -0.02678,-0.0648 -0.04134,-0.0966 -0.02865,0.0222 -0.05658,0.0453 -0.08682,0.0656 -0.05664,0.0381 -0.12155,0.0617 -0.182418,0.0925 -0.0313,0.0144 -0.06344,0.0276 -0.09405,0.0434 -0.03094,0.0159 -0.05613,0.0458 -0.09043,0.0517 -0.01223,0.002 0.01536,-0.0327 0.0036,-0.0367 -0.0015,-5e-4 -0.0032,-5.6e-4 -0.0047,-10e-4 -0.01891,0.10809 -0.04295,0.22165 -0.223242,-0.0357 -0.03548,-0.007 -0.06958,-0.0166 -0.09922,-0.0372 -0.102675,-0.0716 0.298665,-0.33431 0.128674,-0.35295 0.03543,-0.0689 0.09733,-0.18706 0.160714,-0.31006 -0.04475,0.0438 -0.08811,0.0888 -0.135393,0.13023 -0.07838,0.0671 -0.156087,0.13521 -0.235127,0.20154 -0.103511,0.0869 -0.191307,0.17466 -0.319877,0.22066 -0.0073,0.003 0.0087,-0.0235 10e-4,-0.0227 -0.01146,0.001 -0.0122,0.0285 -0.02325,0.0253 -0.100874,-0.0294 -0.194996,-0.0786 -0.292489,-0.11782 0.01193,-0.15171 0.04457,-0.28537 0.08682,-0.43357 0.08922,-0.31297 0.199247,-0.61936 0.360701,-0.9033 0.0238,-0.0362 0.183544,-0.29349 0.241846,-0.33228 0.199941,-0.13302 0.308392,-0.0221 0.398942,0.14211 0.08674,0.15732 -0.07712,0.14939 -0.203605,0.13849 -0.003,0.0152 -0.02037,0.0304 -0.03462,0.0455 0.04229,0.0423 0.05617,0.0642 -0.01602,0.0196 -0.03636,0.0561 -0.07302,0.11199 -0.109554,0.16795 -0.141778,0.25562 -0.23944,0.53053 -0.318843,0.8108 0.007,-0.006 0.0078,-0.007 0.01602,-0.0145 0.07736,-0.0667 0.155483,-0.13251 0.23306,-0.19895 0.298766,-0.26159 0.539073,-0.57838 0.756543,-0.90847 0.06096,-0.0925 0.164948,-0.28964 0.251664,-0.38602 0.02545,-0.0283 0.05932,-0.0479 0.08888,-0.0718 z m -1.346171,1.57975 c -0.08472,0.0748 -0.09597,0.095 -0.192236,0.14521 -0.04649,0.0242 -0.09602,0.0422 -0.141594,0.0682 -0.01006,0.006 -0.03318,0.0198 -0.02325,0.0258 0.08857,0.0532 0.187762,0.0861 0.281637,0.1292 0.008,-0.12888 0.0365,-0.23177 0.07286,-0.36071 7.41e-4,-0.003 0.0019,-0.005 0.0026,-0.008 z m 0.428398,-0.97875 c 0.0019,-0.003 0.0038,-0.006 0.0057,-0.009 0.0023,-0.004 0.0069,-0.007 0.01033,-0.0109 -0.02372,-0.0237 -0.02596,-0.0275 -0.05013,-0.0501 -0.04343,3.1e-4 -0.05885,0.0112 0.02377,0.0646 0.0079,0.005 0.004,10e-4 0.01034,0.005 z m -0.03411,-0.0698 c 0.02178,-1.6e-4 0.05,0.002 0.08475,0.005 8.73e-4,-0.004 0.0017,-0.009 -0.001,-0.0134 -0.01633,-0.0256 -0.06311,0.004 -0.09198,-0.006 -0.02227,-0.008 -0.03381,-0.0332 -0.05374,-0.046 -0.01258,-0.008 0.03234,0.0332 0.06201,0.061 z m 0.205155,0.95601 c 0.04231,-0.0414 0.08212,-0.085 0.122473,-0.12816 -7.4e-4,-0.005 -0.0013,-0.0102 -0.0021,-0.015 -0.0074,-0.0145 -0.01364,-0.0347 -0.02067,-0.0496 -0.0356,0.0691 -0.06035,0.11632 -0.09974,0.19275 z m 0.120406,-0.14314 c 0.0016,0.003 0.004,0.008 0.0057,0.0109 0.08125,-0.0871 0.160414,-0.17604 0.234611,-0.26923 -0.04531,-0.15196 0.0087,-0.0518 -0.01602,-0.0972 -0.138635,0.13407 -0.146661,0.16806 -0.167431,0.15658 -0.01695,0.0322 -0.04367,0.0836 -0.06666,0.12816 0.0034,0.0214 0.0063,0.0482 0.0098,0.0708 z m -0.310575,0.84336 c 0.07281,0.0143 0.152675,0.0127 0.223242,0.0356 0.0047,-0.027 0.0091,-0.056 0.01602,-0.0749 0.02463,-0.0679 0.05623,-0.13287 0.08423,-0.19947 0.01217,-0.0237 0.03631,-0.0699 0.05788,-0.11162 -0.0018,-0.009 -0.0043,-0.0161 -0.0057,-0.0253 -0.03529,0.0184 -0.07088,0.0362 -0.106454,0.0543 -0.02913,0.0137 -0.367384,0.17201 -0.34003,0.21601 0.02711,0.0436 0.04873,0.0739 0.0708,0.10542 z m 1.3255,-0.78394 c -1.51e-4,-0.009 1.48e-4,-0.0183 -5.29e-4,-0.0274 -0.05184,-0.02 -0.109903,0.0308 -0.164848,0.0455 -0.04663,-0.0348 -0.08413,-0.12058 -0.140043,-0.10439 -0.05972,0.0173 -0.05313,0.11215 -0.08061,0.16795 -0.0245,0.0497 -0.0532,0.1042 -0.08062,0.15917 0.01402,0.0224 0.02313,0.0435 0.04703,0.0817 0.02127,0.002 0.04288,0.0106 0.0646,0.0222 0.09421,-0.0935 0.186093,-0.18976 0.277503,-0.28526 0.01745,-0.0182 0.058,-0.0405 0.07751,-0.0594 z m -0.419612,0.32247 c -0.0379,-0.004 -0.07023,0.0113 -0.09767,0.0341 -0.01185,0.028 -0.02638,0.0566 -0.03514,0.0837 -0.0083,0.0257 -0.0125,0.0484 -0.01757,0.0718 0.0012,0.009 0.003,0.0174 0.0052,0.0264 0.06099,-0.051 0.11812,-0.10624 0.175183,-0.16174 -0.0054,-0.0115 -0.0033,-0.008 -0.0098,-0.0217 -0.0128,-0.0206 -0.01012,-0.0165 -0.02015,-0.0326 z m 0.01757,-1.52343 c -0.01916,-0.003 -0.0386,-0.002 -0.05788,0.002 -0.0533,0.0122 -0.05127,0.0969 -0.07596,0.14573 -0.05652,0.11169 -0.108601,0.2254 -0.167432,0.33589 -0.0362,0.068 -0.07484,0.13469 -0.113171,0.20154 0.0079,0.008 0.01652,0.0159 0.02377,0.0227 0.02019,0.0191 0.03829,0.0711 0.05374,0.12609 0.0981,-0.1262 0.192282,-0.25567 0.280603,-0.38912 0.05703,-0.0862 0.105882,-0.17747 0.162263,-0.26407 0.04971,-0.0763 0.05729,-0.11104 0.06563,-0.12041 -0.05723,-0.0206 -0.114074,-0.053 -0.171565,-0.0605 z m -0.280603,1.12913 c -0.04384,0.0833 -0.102509,0.19707 -0.165882,0.3204 0.0088,0.016 0.02824,0.0534 0.03566,0.0661 0.05577,-0.0449 0.110395,-0.0898 0.163298,-0.14211 -0.0108,-0.0855 -0.02098,-0.16395 -0.03307,-0.24443 z m 0.417545,0.72554 c -0.0043,0.0228 -0.0087,0.0402 -0.0124,0.0641 0.01503,0.005 0.02979,0.011 0.04496,0.0155 -0.0091,-0.0226 -0.01828,-0.0456 -0.02739,-0.0682 -0.0025,-0.006 -0.0028,-0.006 -0.0052,-0.0114 z m 0.03256,0.0796 c 3.44e-4,8.5e-4 6.88e-4,0.002 0.001,0.003 -1.53e-4,-8.5e-4 -5.3e-5,-10e-4 -5.29e-4,-0.003 z m 5.29e-4,0 c 0.0025,7.4e-4 0.0048,0.002 0.0072,0.003 0.0049,10e-4 -0.0037,-0.0124 -0.0088,-0.0124 -0.0033,-8e-5 -1.63e-4,0.006 0.0016,0.01 z" />
    <path
       style="opacity:1;fill:#ffffff;fill-opacity:1;fill-rule:evenodd;stroke:#ffffff;stroke-width:0.23622048;stroke-linecap:round;stroke-linejoin:round;stroke-miterlimit:4;stroke-dasharray:none;stroke-opacity:1"
       d=""
       id="path6371"
       inkscape:connector-curvature="0"
       transform="matrix(0.26458333,0,0,0.26458333,0,285.09373)" />
    <path
       style="opacity:1;fill:#ffffff;fill-opacity:1;fill-rule:evenodd;stroke:#ffffff;stroke-width:0.16703311;stroke-linecap:round;stroke-linejoin:round;stroke-miterlimit:4;stroke-dasharray:none;stroke-opacity:1"
       d=""
       id="path6397"
       inkscape:connector-curvature="0"
       transform="matrix(0.26458333,0,0,0.26458333,0,285.09373)" />
    <path
       style="opacity:1;fill:#ffffff;fill-opacity:1;fill-rule:evenodd;stroke:#ffffff;stroke-width:0.08351655;stroke-linecap:round;stroke-linejoin:round;stroke-miterlimit:4;stroke-dasharray:none;stroke-opacity:1"
       d=""
       id="path6405"
       inkscape:connector-curvature="0"
       transform="matrix(0.26458333,0,0,0.26458333,0,285.09373)" />
    <path
       style="opacity:1;fill:#ffffff;fill-opacity:1;fill-rule:evenodd;stroke:#ffffff;stroke-width:0.05905512;stroke-linecap:round;stroke-linejoin:round;stroke-miterlimit:4;stroke-dasharray:none;stroke-opacity:1"
       d=""
       id="path6413"
       inkscape:connector-curvature="0"
       transform="matrix(0.26458333,0,0,0.26458333,0,285.09373)" />
    <path
       style="opacity:1;fill:#ffffff;fill-opacity:1;fill-rule:evenodd;stroke:#ffffff;stroke-width:0.05905512;stroke-linecap:round;stroke-linejoin:round;stroke-miterlimit:4;stroke-dasharray:none;stroke-opacity:1"
       d=""
       id="path6447"
       inkscape:connector-curvature="0"
       transform="matrix(0.26458333,0,0,0.26458333,0,285.09373)" />
    <path
       style="opacity:1;fill:#ffffff;fill-opacity:1;fill-rule:evenodd;stroke:#ffffff;stroke-width:0.05905512;stroke-linecap:round;stroke-linejoin:round;stroke-miterlimit:4;stroke-dasharray:none;stroke-opacity:1"
       d=""
       id="path6471"
       inkscape:connector-curvature="0"
       transform="matrix(0.26458333,0,0,0.26458333,0,285.09373)" />
    <path
       style="opacity:1;fill:#ffffff;fill-opacity:1;fill-rule:evenodd;stroke:#ffffff;stroke-width:0.11811024;stroke-linecap:round;stroke-linejoin:round;stroke-miterlimit:4;stroke-dasharray:none;stroke-opacity:1"
       d=""
       id="path6483"
       inkscape:connector-curvature="0"
       transform="matrix(0.26458333,0,0,0.26458333,0,285.09373)" />
    <path
       style="opacity:1;fill:#ffffff;fill-opacity:1;fill-rule:evenodd;stroke:#ffffff;stroke-width:0.11811024;stroke-linecap:round;stroke-linejoin:round;stroke-miterlimit:4;stroke-dasharray:none;stroke-opacity:1"
       d=""
       id="path6497"
       inkscape:connector-curvature="0"
       transform="matrix(0.26458333,0,0,0.26458333,0,285.09373)" />
    <path
       style="opacity:1;fill:#ffffff;fill-opacity:1;fill-rule:evenodd;stroke:#ffffff;stroke-width:0.11811024;stroke-linecap:round;stroke-linejoin:round;stroke-miterlimit:4;stroke-dasharray:none;stroke-opacity:1"
       d=""
       id="path6499"
       inkscape:connector-curvature="0"
       transform="matrix(0.26458333,0,0,0.26458333,0,285.09373)" />
    <path
       style="opacity:1;fill:#ffffff;fill-opacity:1;fill-rule:evenodd;stroke:#ffffff;stroke-width:0.05905512;stroke-linecap:round;stroke-linejoin:round;stroke-miterlimit:4;stroke-dasharray:none;stroke-opacity:1"
       d=""
       id="path6501"
       inkscape:connector-curvature="0"
       transform="matrix(0.26458333,0,0,0.26458333,0,285.09373)" />
    <g
       transform="matrix(0.13755527,0,0,0.13755527,-29.567512,254.76853)"
       id="g7188"
       style="fill:none;stroke:#ffffff;stroke-width:2.89235783;stroke-miterlimit:4;stroke-dasharray:none;stroke-opacity:1">
      <path
         inkscape:connector-curvature="0"
         d="m 257.621,266.065 c 0.584,0.462 1.327,0.798 1.961,1.014 0.57,-1.015 1.549,-2.19 2.513,-3.127 0.958,-0.939 2.129,-1.845 3.144,-2.386 -0.301,-0.709 -0.5,-1.138 -0.97,-1.93 -1.248,0.649 -2.611,1.571 -3.756,2.69 -1.149,1.117 -2.217,2.518 -2.892,3.739 z"
         id="path7172"
         style="fill:none;stroke:#ffffff;stroke-width:2.89235783;stroke-miterlimit:4;stroke-dasharray:none;stroke-opacity:1" />
      <path
         inkscape:connector-curvature="0"
         d="m 291.475,282.847 c -2.275,0.337 -7.485,-0.997 -13.913,-8.373 -0.877,2.126 -2.645,3.668 -4.764,4.356 6.357,6.584 14.493,8.342 19.556,3.775 -0.631,-0.182 -3.099,-0.646 -6.03,-2.762 -4.553,-3.29 -7.123,-6.506 -8.326,-8.376 0.004,0.411 -0.035,1.244 -0.088,1.624 0.438,1.366 6.813,9.206 13.565,9.756 z"
         id="path7174"
         style="fill:none;stroke:#ffffff;stroke-width:2.89235783;stroke-miterlimit:4;stroke-dasharray:none;stroke-opacity:1" />
      <path
         inkscape:connector-curvature="0"
         d="m 262.521,269.073 c -1.703,-0.771 -3.891,-1.878 -5.925,-3.097 l -3.697,6.984 c 3.558,1.128 7.322,1.733 10.084,1.977 -0.186,-0.56 -0.693,-1.576 -0.794,-2.211 -0.246,-1.539 -0.101,-2.605 0.332,-3.653 z"
         id="path7176"
         style="fill:none;stroke:#ffffff;stroke-width:2.89235783;stroke-miterlimit:4;stroke-dasharray:none;stroke-opacity:1" />
      <path
         inkscape:connector-curvature="0"
         d="m 275.28,266.286 c -0.837,-0.86 -3.489,-8.315 -4.627,-12.235 l -7.074,3.52 c 1.512,2.669 2.612,5.08 3.414,7.153 -0.765,0.343 -1.482,0.817 -2.116,1.435 -2.907,2.839 -2.967,7.492 -0.129,10.403 2.839,2.909 7.494,2.965 10.404,0.129 2.907,-2.839 2.965,-7.495 0.128,-10.405 z m -8.414,7.589 c -1.402,-1.437 -1.373,-3.734 0.062,-5.136 1.438,-1.397 3.733,-1.369 5.134,0.065 1.399,1.432 1.37,3.732 -0.065,5.132 -1.434,1.399 -3.733,1.373 -5.131,-0.061 z"
         id="path7178"
         style="fill:none;stroke:#ffffff;stroke-width:2.89235783;stroke-miterlimit:4;stroke-dasharray:none;stroke-opacity:1" />
      <path
         inkscape:connector-curvature="0"
         d="m 272.044,269.438 c -1.091,-1.121 -2.889,-1.145 -4.017,-0.051 -1.121,1.099 -1.144,2.898 -0.05,4.02 1.099,1.128 2.898,1.147 4.018,0.051 1.127,-1.095 1.151,-2.895 0.049,-4.02 z"
         id="path7180"
         style="fill:none;stroke:#ffffff;stroke-width:2.89235783;stroke-miterlimit:4;stroke-dasharray:none;stroke-opacity:1" />
      <path
         inkscape:connector-curvature="0"
         d="m 260.671,254.328 c -0.695,0.349 -0.913,1.326 -0.486,2.183 0.431,0.858 1.341,1.27 2.039,0.925 l 7.329,-3.659 0.633,-0.294 c -10e-4,-0.007 -0.004,-0.016 -0.005,-0.022 l 1.231,-0.616 c 0.693,-0.344 0.91,-1.321 0.481,-2.18 -0.427,-0.858 -1.338,-1.273 -2.035,-0.926 l -0.7,0.353 c -2.153,-6.302 -6.074,-13.248 -13.096,-19.785 -4.01,-3.731 -11.404,3.545 -7.486,7.438 5.868,5.826 9.964,11.353 12.837,16.213 z"
         id="path7182"
         style="fill:none;stroke:#ffffff;stroke-width:2.89235783;stroke-miterlimit:4;stroke-dasharray:none;stroke-opacity:1" />
      <path
         inkscape:connector-curvature="0"
         d="m 251.854,272.357 c 0.007,0.002 0.016,0.008 0.023,0.009 l 0.329,-0.627 4.068,-7.1 c 0.385,-0.679 0.024,-1.61 -0.811,-2.089 -0.832,-0.475 -1.817,-0.314 -2.202,0.361 l -0.413,0.725 c -4.692,-3.146 -9.98,-7.549 -15.464,-13.733 -3.664,-4.136 -11.348,2.834 -7.852,7.047 6.132,7.381 12.845,11.688 19.014,14.194 l -0.389,0.682 c -0.385,0.673 -0.024,1.606 0.81,2.083 0.831,0.476 1.82,0.314 2.204,-0.358 z"
         id="path7184"
         style="fill:none;stroke:#ffffff;stroke-width:2.89235783;stroke-miterlimit:4;stroke-dasharray:none;stroke-opacity:1" />
      <path
         inkscape:connector-curvature="0"
         d="m 290.238,284.454 c -5.193,2.691 -12.527,0.26 -17.944,-5.381 -1.113,0.242 -2.422,0.278 -3.551,0.178 4.887,8.728 13.94,10.767 21.495,5.203 z"
         id="path7186"
         style="fill:none;stroke:#ffffff;stroke-width:2.89235783;stroke-miterlimit:4;stroke-dasharray:none;stroke-opacity:1" />
    </g>
  </g>
</svg>
