<?xml version="1.0" encoding="UTF-8" standalone="no"?>
<!-- Created with Inkscape (http://www.inkscape.org/) -->

<svg
   xmlns:dc="http://purl.org/dc/elements/1.1/"
   xmlns:cc="http://creativecommons.org/ns#"
   xmlns:rdf="http://www.w3.org/1999/02/22-rdf-syntax-ns#"
   xmlns:svg="http://www.w3.org/2000/svg"
   xmlns="http://www.w3.org/2000/svg"
   xmlns:sodipodi="http://sodipodi.sourceforge.net/DTD/sodipodi-0.dtd"
   xmlns:inkscape="http://www.inkscape.org/namespaces/inkscape"
   width="50"
   height="50"
   viewBox="0 0 13.229167 13.229168"
   version="1.1"
   id="svg8"
   sodipodi:docname="violet_button.svg"
   inkscape:version="0.92.2 (5c3e80d, 2017-08-06)"
   inkscape:export-filename="E:\project\www\grapes\img\yellow_button.png"
   inkscape:export-xdpi="96"
   inkscape:export-ydpi="96">
  <sodipodi:namedview
     id="base"
     pagecolor="#ffffff"
     bordercolor="#666666"
     borderopacity="1.0"
     inkscape:pageopacity="0.0"
     inkscape:pageshadow="2"
     inkscape:zoom="2"
     inkscape:cx="35.790813"
     inkscape:cy="26.9"
     inkscape:document-units="mm"
     inkscape:current-layer="layer1"
     showgrid="false"
     units="px"
     inkscape:window-width="1366"
     inkscape:window-height="716"
     inkscape:window-x="-8"
     inkscape:window-y="-8"
     inkscape:window-maximized="1"
     inkscape:pagecheckerboard="false" />
  <defs
     id="defs2" />
  <metadata
     id="metadata5">
    <rdf:RDF>
      <cc:Work
         rdf:about="">
        <dc:format>image/svg+xml</dc:format>
        <dc:type
           rdf:resource="http://purl.org/dc/dcmitype/StillImage" />
        <dc:title></dc:title>
      </cc:Work>
    </rdf:RDF>
  </metadata>
  <g
     transform="translate(0,-283.77081)"
     id="layer1"
     inkscape:groupmode="layer"
     inkscape:label="Layer 1">
    <path
       d="m 13.042657,291.73177 a 6.5574479,6.6060719 0 0 1 -7.4026061,5.15259 6.5574479,6.6060719 0 0 1 -5.53985499,-7.14259 6.5574479,6.6060719 0 0 1 6.75304689,-5.99008 6.5574479,6.6060719 0 0 1 6.3316632,6.44025"
       sodipodi:open="true"
       sodipodi:end="6.2586634"
       sodipodi:start="0.2101167"
       sodipodi:ry="6.6060719"
       sodipodi:rx="6.5574479"
       sodipodi:cy="290.35391"
       sodipodi:cx="6.6294298"
       sodipodi:type="arc"
       id="path831"
       style="fill:#723de0;fill-opacity:1;fill-rule:evenodd;stroke:none;stroke-width:0.21866076;stroke-linejoin:round;stroke-miterlimit:4;stroke-dasharray:none;stroke-opacity:1" />
    <path
       style="opacity:1;fill:#000000;fill-opacity:0.80402012;fill-rule:evenodd;stroke:#000000;stroke-width:0.0023622;stroke-linecap:round;stroke-linejoin:round;stroke-miterlimit:4;stroke-dasharray:none;stroke-opacity:1"
       d=""
       id="path4797"
       inkscape:connector-curvature="0"
       transform="matrix(0.26458333,0,0,0.26458333,0,286.41665)" />
    <path
       style="opacity:1;fill:#000000;fill-opacity:0.80402012;fill-rule:evenodd;stroke:#000000;stroke-width:0.0023622;stroke-linecap:round;stroke-linejoin:round;stroke-miterlimit:4;stroke-dasharray:none;stroke-opacity:1"
       d=""
       id="path4801"
       inkscape:connector-curvature="0"
       transform="matrix(0.26458333,0,0,0.26458333,0,286.41665)" />
    <path
       style="opacity:1;fill:#000000;fill-opacity:0.80402012;fill-rule:evenodd;stroke:#000000;stroke-width:0.00041758;stroke-linecap:round;stroke-linejoin:round;stroke-miterlimit:4;stroke-dasharray:none;stroke-opacity:1"
       d=""
       id="path4807"
       inkscape:connector-curvature="0"
       transform="matrix(0.26458333,0,0,0.26458333,0,286.41665)" />
    <path
       style="opacity:1;fill:#000000;fill-opacity:0.80402012;fill-rule:evenodd;stroke:#000000;stroke-width:0.00441942;stroke-linecap:round;stroke-linejoin:round;stroke-miterlimit:4;stroke-dasharray:none;stroke-opacity:1"
       d=""
       id="path5329"
       inkscape:connector-curvature="0"
       transform="matrix(0.26458333,0,0,0.26458333,0,286.41665)" />
    <path
       style="opacity:1;fill:#000000;fill-opacity:0.80402012;fill-rule:evenodd;stroke:#000000;stroke-width:0.00625;stroke-linecap:round;stroke-linejoin:round;stroke-miterlimit:4;stroke-dasharray:none;stroke-opacity:1"
       d=""
       id="path5343"
       inkscape:connector-curvature="0"
       transform="matrix(0.26458333,0,0,0.26458333,0,286.41665)" />
    <path
       style="opacity:1;fill:#000000;fill-opacity:0.80402012;fill-rule:evenodd;stroke:#000000;stroke-width:0.003125;stroke-linecap:round;stroke-linejoin:round;stroke-miterlimit:4;stroke-dasharray:none;stroke-opacity:1"
       d=""
       id="path5383"
       inkscape:connector-curvature="0"
       transform="matrix(0.26458333,0,0,0.26458333,0,286.41665)" />
    <path
       style="opacity:1;fill:#ffffff;fill-opacity:0.80402012;fill-rule:evenodd;stroke:#5f4100;stroke-width:0.00023622;stroke-linecap:round;stroke-linejoin:round;stroke-miterlimit:4;stroke-dasharray:none;stroke-opacity:1"
       d=""
       id="path5863"
       inkscape:connector-curvature="0"
       transform="matrix(0.26458333,0,0,0.26458333,0,286.41665)" />
    <path
       id="rect6137-1"
       transform="matrix(0.26458333,0,0,0.26458333,0,283.77081)"
       style="opacity:1;fill:none;fill-opacity:1;fill-rule:evenodd;stroke:none;stroke-width:0.00377953;stroke-linecap:round;stroke-linejoin:round;stroke-miterlimit:4;stroke-dasharray:none;stroke-opacity:1"
       d="m 44.8125,44.0625 v 21.408203 c 0.333528,-0.02707 0.673623,-0.0445 1.027344,-0.04297 1.800722,0.0078 3.857476,0.398561 6.128906,1.279297 0.568135,0.220347 1.145789,0.417429 1.71875,0.625 1.514869,0.536202 3.029526,1.072163 4.548828,1.595703 1.805329,0.618067 3.63039,1.176933 5.455078,1.734375 1.718669,0.514961 3.438687,1.022625 5.16211,1.521485 0.860939,0.248923 1.726045,0.483462 2.589843,0.722656 0.0082,-0.02923 0.01307,-0.05642 0.02148,-0.08594 0.337209,-1.182878 0.753061,-2.340903 1.363281,-3.414062 0.08995,-0.136819 0.693708,-1.109252 0.914063,-1.255859 0.755682,-0.502753 1.165576,-0.08353 1.507812,0.537109 0.327836,0.594595 -0.291478,0.564634 -0.769531,0.523438 0.0031,-0.01481 0.0059,-0.03284 -0.0039,-0.04883 -0.06172,-0.09676 -0.238541,0.01436 -0.347656,-0.02344 -0.08417,-0.03024 -0.127799,-0.12545 -0.203125,-0.173828 -0.04715,-0.02998 0.120285,0.1235 0.232422,0.228515 -0.162319,0.0016 -0.218951,0.04329 0.0918,0.244141 0.02986,0.0189 0.0151,0.0025 0.03906,0.01758 l 0.02148,-0.03125 c 0.0085,-0.01474 0.02621,-0.0268 0.03906,-0.04102 0.159837,0.159875 0.212298,0.242786 -0.06055,0.07422 -0.137423,0.212032 -0.275981,0.423264 -0.414062,0.634766 -0.535552,0.965579 -0.905064,2.003831 -1.205078,3.0625 v 0.002 c 0.02646,-0.02268 0.02948,-0.02634 0.06055,-0.05469 0.292384,-0.252094 0.587655,-0.500841 0.880859,-0.751953 1.129194,-0.988686 2.037441,-2.186009 2.859375,-3.433593 0.2304,-0.349607 0.623426,-1.094714 0.951172,-1.458985 0.09619,-0.10696 0.224215,-0.181153 0.335937,-0.271484 0.327119,0.248315 0.851232,0.356009 0.980469,0.746094 0.11811,0.356409 -0.23244,0.714581 -0.382812,1.058593 -0.20058,0.458873 -0.433306,0.903272 -0.667969,1.345704 -0.278891,0.525845 -0.589888,1.035053 -0.873047,1.558593 -0.01852,0.03402 -0.07775,0.150336 -0.101562,0.195313 0.03515,0.06576 0.06983,0.131502 0.105468,0.197265 0.1824,0.336378 0.217669,0.370755 0.294922,0.509766 0.0923,-0.09524 0.193086,-0.197093 0.279297,-0.285156 0.215736,-0.220725 0.429254,-0.441146 0.642578,-0.664063 0.09921,-0.103559 0.164037,-0.25587 0.294922,-0.314453 0.222652,-0.100157 0.479204,-0.09533 0.71875,-0.142578 0.04808,0.33222 0.151517,0.66308 0.175781,0.996094 0.0057,0.0022 0.01191,-8.06e-4 0.01758,0.002 0.04932,0.02268 0.02633,0.06074 -0.01563,0.101562 8.09e-4,0.04876 0.0056,0.09773 0.002,0.146485 -0.0057,0.06954 -0.67527,1.374844 -0.695313,1.417969 -0.05537,0.119055 -0.10103,0.243155 -0.150391,0.365234 0.04295,0.09838 0.07475,0.199705 0.107422,0.300781 0.649434,0.149588 1.299018,0.298304 1.947266,0.451172 V 44.0625 Z m 34.414062,28.427734 c -5.7e-4,-0.03401 6.06e-4,-0.06912 -0.002,-0.103515 -0.19593,-0.07559 -0.41538,0.116316 -0.623047,0.171875 -0.176239,-0.131528 -0.317972,-0.455722 -0.529296,-0.394532 -0.225714,0.06539 -0.200826,0.423868 -0.304688,0.634766 -0.0926,0.187843 -0.201053,0.393802 -0.304687,0.601563 0.05299,0.08466 0.0874,0.164215 0.177734,0.308593 0.08039,0.0076 0.162049,0.04014 0.244141,0.08398 0.356069,-0.353386 0.703341,-0.71718 1.048828,-1.078125 0.06595,-0.06879 0.21923,-0.153177 0.292968,-0.22461 z m -1.585937,1.21875 c -0.143244,-0.01512 -0.26543,0.04273 -0.369141,0.128907 -0.04479,0.105826 -0.0997,0.213981 -0.132812,0.316406 -0.02754,0.08528 -0.04223,0.161018 -0.05859,0.238281 0.04165,0.0097 0.08334,0.01959 0.125,0.0293 0.187484,-0.1641 0.369882,-0.333767 0.548828,-0.507813 -0.02041,-0.04346 -0.01254,-0.03025 -0.03711,-0.08203 -0.04838,-0.07786 -0.03826,-0.0622 -0.07617,-0.123047 z M 72.669922,73.15625 c -0.0362,0.03196 -0.04816,0.04317 -0.07813,0.07031 0.01829,0.005 0.0364,0.01063 0.05469,0.01563 0.0056,-0.01983 0.008,-0.03649 0.01367,-0.05664 0.0026,-0.01069 0.0071,-0.01899 0.0098,-0.0293 z m 5.037109,-5.205078 c -0.07242,-0.01134 -0.14588,-0.0073 -0.21875,0.0078 -0.201449,0.04611 -0.193793,0.366227 -0.287109,0.550782 -0.213619,0.422135 -0.410459,0.851931 -0.632813,1.269531 -0.136819,0.257008 -0.282861,0.509057 -0.427734,0.761719 0.02986,0.03024 0.06244,0.06024 0.08984,0.08594 0.07631,0.07219 0.144731,0.268726 0.203125,0.476563 0.370771,-0.476977 0.726735,-0.966326 1.060547,-1.470704 0.215546,-0.325795 0.400187,-0.670739 0.613281,-0.998046 0.18788,-0.288378 0.216525,-0.419664 0.248047,-0.455078 -0.216303,-0.07786 -0.431149,-0.20017 -0.648438,-0.228516 z m -3.546875,1.242187 c 0.08182,-6.01e-4 0.188117,0.0083 0.31836,0.01953 -0.01245,0.05631 -0.07595,0.112026 -0.128907,0.167968 -0.08965,-0.08957 -0.0981,-0.102082 -0.189453,-0.1875 z m 2.078125,1.728516 c -0.523975,0.506721 -0.554311,0.635186 -0.632812,0.591797 -0.06406,0.121701 -0.165062,0.315959 -0.251953,0.484375 0.01285,0.08088 0.02388,0.182161 0.03711,0.267578 0.006,0.01134 0.01506,0.03006 0.02148,0.04102 0.307087,-0.329197 0.60629,-0.665364 0.886719,-1.017579 -0.17125,-0.574337 0.03288,-0.195596 -0.06055,-0.367187 z m -0.847656,1.34375 c -0.02797,-0.0548 -0.05155,-0.131185 -0.07813,-0.1875 -0.134551,0.261165 -0.228078,0.439646 -0.376953,0.728516 0.159912,-0.156473 0.310375,-0.321251 0.462891,-0.484375 -0.0028,-0.0189 -0.0048,-0.0385 -0.0078,-0.05664 z m -0.455078,0.541016 c -0.169134,0.165543 -0.333011,0.335601 -0.511719,0.492187 -0.12375,0.105941 -0.247678,0.211855 -0.371094,0.31836 0.135827,0.0361 0.272266,0.06983 0.408204,0.105468 0.135297,-0.260839 0.287368,-0.552664 0.474609,-0.916015 z m 1.710937,-0.587891 c -0.165694,0.314835 -0.387433,0.744808 -0.626953,1.210938 0.03326,0.06047 0.106722,0.202 0.134766,0.25 0.210784,-0.169701 0.417239,-0.339403 0.617187,-0.53711 -0.04082,-0.323149 -0.07931,-0.619652 -0.125,-0.923828 z M 44.8125,80.753906 V 87.1875 H 64.050781 C 62.395106,86.706692 60.74122,86.220069 59.089844,85.724609 57.087333,85.112817 55.084362,84.497881 53.103516,83.818359 51.505002,83.267304 49.911952,82.703749 48.318359,82.138672 47.584594,81.872215 46.844576,81.618758 46.119141,81.330078 45.661056,81.147809 45.230379,80.952727 44.8125,80.753906 Z" />
    <path
       style="opacity:1;fill:#ffffff;fill-opacity:1;fill-rule:evenodd;stroke:#ffffff;stroke-width:0.23622048;stroke-linecap:round;stroke-linejoin:round;stroke-miterlimit:4;stroke-dasharray:none;stroke-opacity:1"
       d=""
       id="path6371"
       inkscape:connector-curvature="0"
       transform="matrix(0.26458333,0,0,0.26458333,0,285.09373)" />
    <path
       style="opacity:1;fill:#ffffff;fill-opacity:1;fill-rule:evenodd;stroke:#ffffff;stroke-width:0.16703311;stroke-linecap:round;stroke-linejoin:round;stroke-miterlimit:4;stroke-dasharray:none;stroke-opacity:1"
       d=""
       id="path6397"
       inkscape:connector-curvature="0"
       transform="matrix(0.26458333,0,0,0.26458333,0,285.09373)" />
    <path
       style="opacity:1;fill:#ffffff;fill-opacity:1;fill-rule:evenodd;stroke:#ffffff;stroke-width:0.08351655;stroke-linecap:round;stroke-linejoin:round;stroke-miterlimit:4;stroke-dasharray:none;stroke-opacity:1"
       d=""
       id="path6405"
       inkscape:connector-curvature="0"
       transform="matrix(0.26458333,0,0,0.26458333,0,285.09373)" />
    <path
       style="opacity:1;fill:#ffffff;fill-opacity:1;fill-rule:evenodd;stroke:#ffffff;stroke-width:0.05905512;stroke-linecap:round;stroke-linejoin:round;stroke-miterlimit:4;stroke-dasharray:none;stroke-opacity:1"
       d=""
       id="path6413"
       inkscape:connector-curvature="0"
       transform="matrix(0.26458333,0,0,0.26458333,0,285.09373)" />
    <path
       style="opacity:1;fill:#ffffff;fill-opacity:1;fill-rule:evenodd;stroke:#ffffff;stroke-width:0.05905512;stroke-linecap:round;stroke-linejoin:round;stroke-miterlimit:4;stroke-dasharray:none;stroke-opacity:1"
       d=""
       id="path6447"
       inkscape:connector-curvature="0"
       transform="matrix(0.26458333,0,0,0.26458333,0,285.09373)" />
    <path
       style="opacity:1;fill:#ffffff;fill-opacity:1;fill-rule:evenodd;stroke:#ffffff;stroke-width:0.05905512;stroke-linecap:round;stroke-linejoin:round;stroke-miterlimit:4;stroke-dasharray:none;stroke-opacity:1"
       d=""
       id="path6471"
       inkscape:connector-curvature="0"
       transform="matrix(0.26458333,0,0,0.26458333,0,285.09373)" />
    <path
       style="opacity:1;fill:#ffffff;fill-opacity:1;fill-rule:evenodd;stroke:#ffffff;stroke-width:0.11811024;stroke-linecap:round;stroke-linejoin:round;stroke-miterlimit:4;stroke-dasharray:none;stroke-opacity:1"
       d=""
       id="path6483"
       inkscape:connector-curvature="0"
       transform="matrix(0.26458333,0,0,0.26458333,0,285.09373)" />
    <path
       style="opacity:1;fill:#ffffff;fill-opacity:1;fill-rule:evenodd;stroke:#ffffff;stroke-width:0.11811024;stroke-linecap:round;stroke-linejoin:round;stroke-miterlimit:4;stroke-dasharray:none;stroke-opacity:1"
       d=""
       id="path6497"
       inkscape:connector-curvature="0"
       transform="matrix(0.26458333,0,0,0.26458333,0,285.09373)" />
    <path
       style="opacity:1;fill:#ffffff;fill-opacity:1;fill-rule:evenodd;stroke:#ffffff;stroke-width:0.11811024;stroke-linecap:round;stroke-linejoin:round;stroke-miterlimit:4;stroke-dasharray:none;stroke-opacity:1"
       d=""
       id="path6499"
       inkscape:connector-curvature="0"
       transform="matrix(0.26458333,0,0,0.26458333,0,285.09373)" />
    <path
       style="opacity:1;fill:#ffffff;fill-opacity:1;fill-rule:evenodd;stroke:#ffffff;stroke-width:0.05905512;stroke-linecap:round;stroke-linejoin:round;stroke-miterlimit:4;stroke-dasharray:none;stroke-opacity:1"
       d=""
       id="path6501"
       inkscape:connector-curvature="0"
       transform="matrix(0.26458333,0,0,0.26458333,0,285.09373)" />
    <g
       id="g7979"
       style="stroke:#ffffff;stroke-width:0.46606709;stroke-miterlimit:4;stroke-dasharray:none;stroke-opacity:1"
       transform="matrix(0.74765255,0,0,0.74765255,-0.56141002,59.369102)">
      <path
         inkscape:connector-curvature="0"
         id="path7958"
         d="m 8.7463952,315.19435 -2.3503014,-0.0234 -2.1865987,0.15201 -0.1169305,-0.0818 0.070158,-0.16371 0.1637024,-0.86528 0.081851,-0.0702 0.3624844,-0.0351 1.7656493,-0.0702 -1.718877,-1.13422 -0.1403168,-0.81852 0.011692,-0.57295 0.1870884,-1.181 1.2628486,0.0585 v -0.56126 l 0.1286235,-0.63143 0.2104747,-0.54957 0.245554,-0.39756 -0.1520095,-0.46772 -0.1403165,-0.0234 0.2104747,-0.74836 0.1169302,-0.28063 0.1987818,0.0351 0.3157122,-1.02899 -0.1870888,-0.28063 -0.035079,-0.28063 0.1052372,-0.25725 0.1403165,-0.15201 0.1403164,-0.0818 0.1753958,-0.0468 0.3390982,-1.07576 -0.3274052,-0.28064 -0.1520095,-0.18708 -0.070158,-0.0935 0.1403164,-0.24555 0.093544,0.12862 0.3390982,-0.0585 0.2689399,0.3274 0.3274052,0.0117 0.2104747,-0.0117 0.26894,0.19878 0.1052375,-0.0818 0.070158,0.22217 -0.081851,0.0935 -0.3858705,0.0351 -0.3040189,0.0468 -0.093545,0.0585 -0.046772,0.14032 -0.2923262,0.90036 0.4911077,0.29233 0.070158,-0.0351 1.0874528,0.67819 0.1987817,0.0935 0.1753949,-0.11693 0.105238,-0.0117 0.03508,-0.0819 0.409256,0.0234 0.05847,0.10524 h 0.09354 l 0.15201,-0.1754 0.584652,0.0935 0.04677,-0.31571 0.198781,0.0468 0.05847,-0.45603 0.13447,0.0468 -0.04093,0.42095 0.157856,0.0643 0.13447,-0.0819 0.07601,-0.67235 -0.210475,-0.26309 -0.298173,-0.0935 -0.204628,-0.11693 c 0,0 -0.05846,-0.0526 -0.08185,-0.076 -0.02339,-0.0234 -0.09354,-0.15786 -0.09354,-0.15786 l -0.04677,-0.2514 0.05262,-0.30402 0.06431,-0.18124 -0.03508,-0.20463 -0.13447,-0.17539 -0.216322,-0.16371 -2.0638212,-1.32131 -0.023387,0.0292 -0.7542011,-0.49695 v -0.14616 l 0.046772,-0.0877 h 0.046772 l 0.093545,-0.0234 0.7015824,0.45603 0.017539,0.0526 2.2626039,1.44994 0.169549,0.17539 0.09354,0.16955 0.04093,0.16955 -0.02923,0.22217 -0.04677,0.20463 -0.01169,0.24555 0.01169,0.11108 0.122777,0.11693 0.146163,0.0643 0.222168,0.076 0.163703,0.11108 0.09939,0.0877 0.09354,0.12278 0.05846,0.19878 -0.01169,0.18709 -0.01169,0.18709 -0.02339,0.21047 -0.02923,0.0994 0.13447,0.13447 0.02923,0.0351 0.187088,0.0526 c 0,0 0.04093,0.0409 0.04677,0.0117 0.0058,-0.0292 0.0058,-0.11108 0.0058,-0.11108 h 0.479415 l 0.134469,0.0409 0.04677,0.39757 0.122777,0.11693 5.256023,0.0234 2.297683,0.0351 0.198781,-0.0117 0.0058,-0.0468 0.09939,-0.006 v -0.0468 l -0.309865,-0.0234 0.0058,-0.076 0.09939,-0.0351 0.187088,0.006 0.01754,-0.12277 -0.076,-0.0292 0.02923,-0.076 0.397564,0.0175 0.02339,0.076 0.321559,-0.006 0.05262,0.076 -0.08185,0.0585 -0.04093,-0.006 0.13447,0.0409 0.175396,-0.10523 0.584652,0.0468 0.02923,0.72497 0.128623,0.11108 0.175396,0.0175 0.04677,-0.0994 0.210475,-0.006 0.04677,0.4268 -0.08185,0.13447 -0.216321,-0.0117 0.0058,-0.0935 h -0.169549 l -0.08185,0.12278 -0.09939,0.006 -0.01754,0.64896 -0.608038,0.0292 -0.286479,0.0117 v 0.0819 l -0.368331,-0.0409 -0.13447,-0.006 -0.210475,-0.0585 -0.216321,-0.11109 v -0.0877 l 0.26894,0.006 0.01169,-0.0643 -0.076,-0.0175 -0.01169,-0.0351 -10.570509,-0.0818 0.076,0.0643 -0.08185,0.12863 -0.169549,-0.0117 -0.01754,0.0877 -0.05847,0.0234 v 0.0585 l -0.05846,0.0117 H 10.22538 l -0.01169,-0.15786 -0.2689396,0.0175 -0.1169305,-0.0994 -0.023387,0.13447 -0.122777,0.076 -0.1286235,0.0117 -0.5144939,0.84774 -0.3098655,0.50865 -0.2221679,0.49695 -0.192935,0.5905 -0.00585,0.20463 1.9176589,0.0351 -0.03508,0.58465 -0.0058,0.56127 0.09354,0.68404 0.204629,0.57881 0.321558,0.52034 0.368331,0.43264 0.362484,0.35079 0.380024,0.36249 h 0.13447 l 0.724969,0.34494 1.262848,0.55542 0.567113,0.25725 v 0.0468 l -4.9929294,0.73081 z"
         style="fill:none;stroke:#ffffff;stroke-width:0.46606709;stroke-linecap:butt;stroke-linejoin:miter;stroke-miterlimit:4;stroke-dasharray:none;stroke-opacity:1" />
      <path
         inkscape:connector-curvature="0"
         id="path7960"
         d="m 8.7463952,315.19435 -0.052619,-0.23971 3.2212888,-0.40957 v 0"
         style="fill:none;stroke:#ffffff;stroke-width:0.46606709;stroke-linecap:butt;stroke-linejoin:miter;stroke-miterlimit:4;stroke-dasharray:none;stroke-opacity:1" />
      <path
         inkscape:connector-curvature="0"
         id="path7962"
         d="m 8.6937762,314.95464 -0.2806327,0.0351 -0.8477457,-0.36248 -0.5378799,-0.29233 -0.4911082,-0.29824 v 0"
         style="fill:none;stroke:#ffffff;stroke-width:0.46606709;stroke-linecap:butt;stroke-linejoin:miter;stroke-miterlimit:4;stroke-dasharray:none;stroke-opacity:1" />
      <path
         inkscape:connector-curvature="0"
         id="path7964"
         d="m 8.30772,310.43494 -2.1688753,-0.0465 v 0"
         style="fill:none;stroke:#ffffff;stroke-width:0.46606709;stroke-linecap:butt;stroke-linejoin:miter;stroke-miterlimit:4;stroke-dasharray:none;stroke-opacity:1" />
      <path
         inkscape:connector-curvature="0"
         id="path7966"
         d="m 7.4543141,310.41774 0.040925,-0.6665 0.2981727,-0.6782 0.3858705,-0.46772 0.4969541,-0.30987 0.5495729,-0.21047 0.245554,-0.19294 0.081668,-0.10557"
         style="fill:none;stroke:#ffffff;stroke-width:0.46606709;stroke-linecap:butt;stroke-linejoin:miter;stroke-miterlimit:4;stroke-dasharray:none;stroke-opacity:1" />
      <path
         inkscape:connector-curvature="0"
         id="path7968"
         d="m 7.1619879,310.39436 0.111084,-0.91206 0.3624842,-0.81267 c 0,0 0.6665034,-0.5905 0.6898896,-0.61388 0.023387,-0.0234 0.2046283,-0.15786 0.2046283,-0.15786 l -0.233861,-0.49695 -0.8302059,0.50864 -0.5028009,0.6022 -0.3098655,0.68404 -0.1052375,0.4151 -0.046772,0.32156 -0.029233,0.30987 0.011692,0.14031 v 0.006"
         style="fill:none;stroke:#ffffff;stroke-width:0.46606709;stroke-linecap:butt;stroke-linejoin:miter;stroke-miterlimit:4;stroke-dasharray:none;stroke-opacity:1" />
      <path
         inkscape:connector-curvature="0"
         id="path7970"
         d="m 8.5534599,306.75782 -0.00585,-0.35664 -0.53788,-0.39171 -0.3390982,-0.13447 -0.3215587,0.97052 0.1520095,0.0643 v 0.0877 l -0.046772,0.30402 0.076005,0.0526 0.4384889,-0.31571 z"
         style="fill:none;stroke:#ffffff;stroke-width:0.46606709;stroke-linecap:butt;stroke-linejoin:miter;stroke-miterlimit:4;stroke-dasharray:none;stroke-opacity:1" />
    </g>
  </g>
</svg>
